<?xml version="1.0" encoding="UTF-8"?>
<!DOCTYPE svg PUBLIC "-//W3C//DTD SVG 1.1//EN" "http://www.w3.org/Graphics/SVG/1.1/DTD/svg11.dtd">
<!-- Creator: CorelDRAW 2020 (64-Bit) -->
<svg xmlns="http://www.w3.org/2000/svg" xml:space="preserve" width="86.522mm" height="53.644mm" version="1.1" style="shape-rendering:geometricPrecision; text-rendering:geometricPrecision; image-rendering:optimizeQuality; fill-rule:evenodd; clip-rule:evenodd"
viewBox="0 0 8652.2 5364.4"
 xmlns:xlink="http://www.w3.org/1999/xlink"
 xmlns:xodm="http://www.corel.com/coreldraw/odm/2003">
 <defs>
  <style type="text/css">
   <![CDATA[
    .str0 {stroke:#2B2A29;stroke-width:17.64;stroke-miterlimit:2.61313}
    .fil0 {fill:none}
    .fil1 {fill:#2B2A29}
    .fil254 {fill:#FBFAF9}
    .fil253 {fill:#FAFAF7}
    .fil252 {fill:#FAF9F4}
    .fil43 {fill:#FADCA5}
    .fil42 {fill:#FADCA4}
    .fil44 {fill:#F9DAA3}
    .fil251 {fill:#FAF8F2}
    .fil250 {fill:#F9F6EF}
    .fil41 {fill:#F9DBA3}
    .fil40 {fill:#F9DBA2}
    .fil45 {fill:#F8D9A1}
    .fil46 {fill:#F8D89F}
    .fil47 {fill:#F7D79E}
    .fil249 {fill:#F8F6ED}
    .fil248 {fill:#F8F5EB}
    .fil247 {fill:#F8F4E9}
    .fil140 {fill:#F9EDD3}
    .fil39 {fill:#F9DBA2}
    .fil38 {fill:#F8DAA0}
    .fil48 {fill:#F5D59C}
    .fil49 {fill:#F5D49A}
    .fil50 {fill:#F4D398}
    .fil51 {fill:#F4D296}
    .fil246 {fill:#F7F3E6}
    .fil245 {fill:#F7F2E4}
    .fil141 {fill:#F8ECD2}
    .fil142 {fill:#F8EBCF}
    .fil143 {fill:#F8EBCE}
    .fil139 {fill:#F7E8CD}
    .fil37 {fill:#F7DAA0}
    .fil36 {fill:#F7DA9F}
    .fil35 {fill:#F7DA9E}
    .fil52 {fill:#F2D095}
    .fil53 {fill:#F1CF93}
    .fil54 {fill:#F1CE92}
    .fil244 {fill:#F7F1E2}
    .fil243 {fill:#F7F0DF}
    .fil144 {fill:#F7E9CB}
    .fil145 {fill:#F7E9C9}
    .fil138 {fill:#F3E1C1}
    .fil34 {fill:#F7D99D}
    .fil33 {fill:#F6D99C}
    .fil32 {fill:#F6D99B}
    .fil55 {fill:#F0CD90}
    .fil56 {fill:#EFCC8F}
    .fil57 {fill:#EECA8C}
    .fil58 {fill:#EECA8B}
    .fil242 {fill:#F6F0DD}
    .fil241 {fill:#F5EEDB}
    .fil240 {fill:#F5EDD8}
    .fil146 {fill:#F6E7C7}
    .fil147 {fill:#F6E7C5}
    .fil137 {fill:#F0DBB7}
    .fil31 {fill:#F6D89A}
    .fil30 {fill:#F6D89A}
    .fil59 {fill:#EDC889}
    .fil60 {fill:#ECC788}
    .fil61 {fill:#EBC586}
    .fil239 {fill:#F4ECD6}
    .fil238 {fill:#F4ECD4}
    .fil148 {fill:#F5E6C3}
    .fil149 {fill:#F5E6C1}
    .fil136 {fill:#ECD3AC}
    .fil29 {fill:#F4D799}
    .fil28 {fill:#F4D798}
    .fil62 {fill:#EAC484}
    .fil63 {fill:#E9C383}
    .fil64 {fill:#E9C281}
    .fil237 {fill:#F4EBD1}
    .fil236 {fill:#F4EACF}
    .fil235 {fill:#F4EACD}
    .fil150 {fill:#F5E5BF}
    .fil151 {fill:#F5E4BD}
    .fil27 {fill:#F4D797}
    .fil26 {fill:#F4D796}
    .fil25 {fill:#F4D795}
    .fil65 {fill:#E7C07F}
    .fil66 {fill:#E6BF7E}
    .fil67 {fill:#E6BE7C}
    .fil68 {fill:#E5BD7B}
    .fil234 {fill:#F3E9CA}
    .fil233 {fill:#F3E8C8}
    .fil152 {fill:#F3E3BA}
    .fil153 {fill:#F3E2B8}
    .fil154 {fill:#F3E2B6}
    .fil24 {fill:#F3D695}
    .fil23 {fill:#F3D694}
    .fil22 {fill:#F3D693}
    .fil135 {fill:#E8CDA1}
    .fil69 {fill:#E4BC79}
    .fil70 {fill:#E3BA77}
    .fil71 {fill:#E3BA76}
    .fil232 {fill:#F2E6C5}
    .fil231 {fill:#F2E6C3}
    .fil155 {fill:#F3E1B3}
    .fil156 {fill:#F3E1B2}
    .fil21 {fill:#F2D692}
    .fil134 {fill:#E5C797}
    .fil72 {fill:#E2B974}
    .fil73 {fill:#E1B773}
    .fil74 {fill:#E0B671}
    .fil75 {fill:#E0B570}
    .fil230 {fill:#F1E5C1}
    .fil229 {fill:#F1E4BE}
    .fil228 {fill:#F1E4BC}
    .fil157 {fill:#F2DFAF}
    .fil158 {fill:#F2DFAD}
    .fil20 {fill:#F1D591}
    .fil19 {fill:#F1D590}
    .fil18 {fill:#F1D58F}
    .fil133 {fill:#E1C18D}
    .fil76 {fill:#DFB46E}
    .fil77 {fill:#DEB36D}
    .fil78 {fill:#DDB16B}
    .fil227 {fill:#F0E3B9}
    .fil226 {fill:#F0E2B7}
    .fil159 {fill:#F1DEAB}
    .fil160 {fill:#F1DDA9}
    .fil17 {fill:#F0D48E}
    .fil16 {fill:#F0D48D}
    .fil132 {fill:#DEBA83}
    .fil79 {fill:#DCB06A}
    .fil80 {fill:#DCAF68}
    .fil81 {fill:#DBAE66}
    .fil225 {fill:#F0E1B4}
    .fil224 {fill:#F0E0B3}
    .fil161 {fill:#F0DCA6}
    .fil162 {fill:#F0DCA5}
    .fil163 {fill:#F0DBA2}
    .fil15 {fill:#EFD38C}
    .fil131 {fill:#DCB77D}
    .fil130 {fill:#DAB479}
    .fil82 {fill:#D9AC64}
    .fil83 {fill:#D9AC63}
    .fil84 {fill:#D8AB61}
    .fil85 {fill:#D8A960}
    .fil223 {fill:#EEDFB0}
    .fil222 {fill:#EEDEAD}
    .fil221 {fill:#EEDDAA}
    .fil164 {fill:#EFDAA0}
    .fil165 {fill:#EFD99E}
    .fil14 {fill:#EED289}
    .fil129 {fill:#D8B175}
    .fil86 {fill:#D6A85E}
    .fil87 {fill:#D6A85E}
    .fil88 {fill:#D5A75C}
    .fil220 {fill:#EEDDA8}
    .fil219 {fill:#EEDCA5}
    .fil166 {fill:#EED99C}
    .fil167 {fill:#EED899}
    .fil13 {fill:#EDD287}
    .fil128 {fill:#D6AF70}
    .fil127 {fill:#D5AC6C}
    .fil89 {fill:#D4A55A}
    .fil90 {fill:#D3A459}
    .fil91 {fill:#D3A357}
    .fil92 {fill:#D2A256}
    .fil218 {fill:#EDDBA3}
    .fil217 {fill:#EDDAA0}
    .fil168 {fill:#EDD797}
    .fil169 {fill:#EDD695}
    .fil12 {fill:#EDD185}
    .fil126 {fill:#D3A968}
    .fil125 {fill:#D2A763}
    .fil93 {fill:#D1A154}
    .fil94 {fill:#D09F53}
    .fil95 {fill:#D09F52}
    .fil216 {fill:#ECD99E}
    .fil215 {fill:#ECD99C}
    .fil214 {fill:#ECD799}
    .fil170 {fill:#ECD593}
    .fil171 {fill:#ECD590}
    .fil172 {fill:#ECD48F}
    .fil11 {fill:#ECD183}
    .fil124 {fill:#D0A45F}
    .fil123 {fill:#CFA15B}
    .fil96 {fill:#CF9D51}
    .fil97 {fill:#CE9C4F}
    .fil98 {fill:#CD9B4E}
    .fil213 {fill:#EBD796}
    .fil212 {fill:#EBD694}
    .fil173 {fill:#ECD48C}
    .fil174 {fill:#EBD38A}
    .fil10 {fill:#EBD080}
    .fil122 {fill:#CD9F57}
    .fil121 {fill:#CC9B53}
    .fil99 {fill:#CC9A4C}
    .fil100 {fill:#CC994B}
    .fil101 {fill:#CB984A}
    .fil102 {fill:#CA9749}
    .fil211 {fill:#EAD591}
    .fil210 {fill:#EAD48F}
    .fil209 {fill:#EAD48C}
    .fil175 {fill:#EAD288}
    .fil176 {fill:#EAD185}
    .fil9 {fill:#EAD07E}
    .fil120 {fill:#CA994F}
    .fil119 {fill:#C8964A}
    .fil103 {fill:#C99647}
    .fil104 {fill:#C99546}
    .fil105 {fill:#C89444}
    .fil208 {fill:#E9D389}
    .fil207 {fill:#E9D287}
    .fil177 {fill:#E9D083}
    .fil178 {fill:#E9D080}
    .fil8 {fill:#E9CE7B}
    .fil118 {fill:#C79447}
    .fil106 {fill:#C79243}
    .fil117 {fill:#C59143}
    .fil107 {fill:#C69141}
    .fil108 {fill:#C69140}
    .fil109 {fill:#C58F3F}
    .fil206 {fill:#E9D185}
    .fil205 {fill:#E9D182}
    .fil179 {fill:#E9CF7E}
    .fil180 {fill:#E9CF7C}
    .fil7 {fill:#E9CE7A}
    .fil116 {fill:#C48F3F}
    .fil110 {fill:#C48E3D}
    .fil111 {fill:#C38D3D}
    .fil112 {fill:#C38C3B}
    .fil204 {fill:#E7CF7F}
    .fil203 {fill:#E7CE7C}
    .fil202 {fill:#E7CE7A}
    .fil181 {fill:#E8CE7A}
    .fil6 {fill:#E7CD77}
    .fil182 {fill:#E7CC75}
    .fil115 {fill:#C28C3C}
    .fil113 {fill:#C28B3A}
    .fil114 {fill:#C18A39}
    .fil201 {fill:#E6CD77}
    .fil256 {fill:#E7CC75}
    .fil200 {fill:#E6CC74}
    .fil183 {fill:#E6CB72}
    .fil184 {fill:#E6CB70}
    .fil199 {fill:#E6CB71}
    .fil198 {fill:#E6CA6E}
    .fil185 {fill:#E6CA6D}
    .fil186 {fill:#E6CA6C}
    .fil197 {fill:#E5C96C}
    .fil196 {fill:#E5C96A}
    .fil187 {fill:#E5C869}
    .fil195 {fill:#E4C867}
    .fil188 {fill:#E5C867}
    .fil189 {fill:#E3C764}
    .fil190 {fill:#E3C662}
    .fil194 {fill:#E3C661}
    .fil191 {fill:#E3C65F}
    .fil193 {fill:#E3C55E}
    .fil192 {fill:#E3C55D}
    .fil5 {fill:#2A2524}
    .fil255 {fill:#FAFAFA}
    .fil2 {fill:url(#id3)}
    .fil3 {fill:url(#id4)}
    .fil258 {fill:url(#id5)}
    .fil257 {fill:url(#id6)}
    .fil4 {fill:url(#id7)}
   ]]>
  </style>
     <clipPath id="id0">
      <path d="M4328.63 1548.11c550.11,0 996.05,447.03 996.05,998.46 0,551.43 -445.94,998.46 -996.05,998.46 -550.11,0 -996.04,-447.03 -996.04,-998.46 0,-551.43 445.93,-998.46 996.04,-998.46zm0 52.53c521.18,0 943.63,423.53 943.63,945.93 0,132.48 -27.18,258.67 -76.23,373.1 -144.38,336.91 -478.42,572.84 -867.4,572.84 -378.55,0 -705.06,-223.42 -855.36,-545.91 -56.62,-121.45 -88.26,-257.06 -88.26,-400.03 0,-522.4 422.45,-945.93 943.62,-945.93z"/>
     </clipPath>
     <clipPath id="id1">
      <path d="M4328.63 1548.11c215.66,0 399.43,272.6 469.6,654.66l-9.16 0c-70.86,-366.56 -247.23,-626.24 -453.61,-626.24 -206.39,0 -382.76,259.68 -453.62,626.24l-22.8 0c70.17,-382.06 253.94,-654.66 469.59,-654.66zm476.61 695.66c15.21,95.51 23.43,197.23 23.43,302.8 0,123.55 -11.27,241.81 -31.81,351.02l-3.73 0c18.89,-105.01 29.21,-218.35 29.21,-336.56 0,-111.01 -9.11,-217.72 -25.86,-317.26l8.76 0zm-16.6 694.83c-26.9,125.7 -66.36,238.12 -115.22,331.03 47.67,-92.99 85.97,-205.43 111.79,-331.03l3.43 0zm-472.39 606.09c-201.13,-9.77 -372.84,-256.7 -447.62,-606.09l17.07 0c70.92,345 236.1,590.82 430.55,606.09zm-21.15 -54.55c11.08,1.54 22.26,2.36 33.53,2.36 140.44,0 266.57,-122.02 353.31,-315.85 -84.53,194.38 -208.41,317.08 -346.48,317.08 -13.61,0 -27.06,-1.26 -40.36,-3.59zm-434.69 -592.55c-20.54,-109.21 -31.81,-227.47 -31.81,-351.02 0,-105.57 8.22,-207.29 23.44,-302.8l22.39 0c-16.75,99.54 -25.85,206.25 -25.85,317.26 0,118.21 10.31,231.55 29.21,336.56l-17.38 0z"/>
     </clipPath>
     <clipPath id="id2">
      <path d="M4335.46 1576.53c268.9,0 493.16,441.79 493.16,985.52 0,543.72 -224.26,983.48 -493.16,983.48 -268.89,0 -506.79,-437.88 -506.79,-981.6 0,-543.72 237.9,-987.4 506.79,-987.4zm0 51.79c254.76,0 453.35,420.21 453.35,935.27 0,515.1 -198.59,930.15 -453.35,930.15 -254.75,0 -461.27,-417.61 -461.27,-932.71 0,-515.1 206.52,-932.71 461.27,-932.71z"/>
     </clipPath>
  <linearGradient id="id3" gradientUnits="userSpaceOnUse" x1="4521.13" y1="635.61" x2="4160.49" y2="4525.37">
   <stop offset="0" style="stop-opacity:1; stop-color:#705216"/>
   <stop offset="0.0784314" style="stop-opacity:1; stop-color:#A07F3D"/>
   <stop offset="0.388235" style="stop-opacity:1; stop-color:#BDA066"/>
   <stop offset="0.560784" style="stop-opacity:1; stop-color:#F2E9D7"/>
   <stop offset="0.780392" style="stop-opacity:1; stop-color:#BDA066"/>
   <stop offset="1" style="stop-opacity:1; stop-color:#8A6521"/>
  </linearGradient>
  <linearGradient id="id4" gradientUnits="userSpaceOnUse" x1="5578.73" y1="2545.04" x2="6300.47" y2="2495.36">
   <stop offset="0" style="stop-opacity:1; stop-color:#705216"/>
   <stop offset="0.0784314" style="stop-opacity:1; stop-color:#A07F3D"/>
   <stop offset="0.388235" style="stop-opacity:1; stop-color:#BDA066"/>
   <stop offset="0.560784" style="stop-opacity:1; stop-color:#F2E9D7"/>
   <stop offset="0.768627" style="stop-opacity:1; stop-color:#C4AA76"/>
   <stop offset="1" style="stop-opacity:1; stop-color:#DAC8A3"/>
  </linearGradient>
  <linearGradient id="id5" gradientUnits="userSpaceOnUse" x1="5561.83" y1="2927.44" x2="2972.85" y2="2930.34">
   <stop offset="0" style="stop-opacity:1; stop-color:#E7CC75"/>
   <stop offset="0.0431373" style="stop-opacity:1; stop-color:#F0D48D"/>
   <stop offset="0.160784" style="stop-opacity:1; stop-color:#FADCA5"/>
   <stop offset="0.439216" style="stop-opacity:1; stop-color:#C08939"/>
   <stop offset="0.509804" style="stop-opacity:1; stop-color:#DCBB86"/>
   <stop offset="0.541176" style="stop-opacity:1; stop-color:#F9EDD4"/>
   <stop offset="0.74902" style="stop-opacity:1; stop-color:#E3C55C"/>
   <stop offset="1" style="stop-opacity:1; stop-color:#FAFAFA"/>
  </linearGradient>
  <linearGradient id="id6" gradientUnits="userSpaceOnUse" xlink:href="#id5" x1="5697.98" y1="2234.14" x2="3093.86" y2="2230.84">
  </linearGradient>
  <radialGradient id="id7" gradientUnits="userSpaceOnUse" gradientTransform="matrix(0.974708 -0 -0 0.999995 110 0)" cx="4342.96" cy="2566.51" r="348.36" fx="4342.96" fy="2566.51">
   <stop offset="0" style="stop-opacity:1; stop-color:#605C5B"/>
   <stop offset="1" style="stop-opacity:1; stop-color:#2B2A29"/>
  </radialGradient>
 </defs>
 <g id="Layer_x0020_1">
  <metadata id="CorelCorpID_0Corel-Layer"/>
  <rect class="fil0" x="-0.37" y="1.73" width="8652.2" height="5364.4"/>
  <g id="_2941478660864">
   <path class="fil1" d="M4314.5 617.65c1010.53,0 1722.04,661.35 1915.74,1540.94l-88.57 0c-192.06,-831.42 -864.52,-1454.43 -1827.17,-1454.43 -962.65,0 -1874.94,839.45 -1874.94,1874.96 0,1035.52 839.42,1874.96 1874.94,1874.96 1028.55,0 1863.47,-828.22 1874.67,-1854.1l86.53 0c-11.2,1073.7 -884.89,1940.61 -1961.2,1940.61 -1083.29,0 -1961.47,-878.16 -1961.47,-1961.47 0,-1083.3 950.94,-1961.47 1961.47,-1961.47z"/>
   <polygon class="fil1" points="6297.69,2424.98 5557.8,2424.98 5557.8,2623.94 6297.69,2623.94 "/>
   <path class="fil2" d="M4340.95 627.34c937.78,0 1721.73,655.35 1915.42,1531.21l-88.57 0c-192.06,-827.9 -937.06,-1445.07 -1826.85,-1445.07 -1035.52,0 -1874.94,835.88 -1874.94,1867.01 0,1031.13 839.42,1867.01 1874.94,1867.01 1028.55,0 1863.47,-824.71 1874.67,-1846.24l86.53 0c-11.2,1069.14 -884.89,1932.38 -1961.2,1932.38 -1083.29,0 -1961.47,-874.44 -1961.47,-1953.15 0,-1078.71 878.18,-1953.15 1961.47,-1953.15z"/>
   <polygon class="fil3" points="6302.13,2438.04 5577.06,2438.04 5577.06,2602.36 6302.13,2602.36 "/>
   <ellipse class="fil4 str0" cx="4342.96" cy="2566.51" rx="929.5" ry="956.16"/>
   <path class="fil1" d="M4320.73 1550.69c550.11,0 996.04,447.02 996.04,998.46 0,551.43 -445.93,998.45 -996.04,998.45 -550.11,0 -996.04,-447.02 -996.04,-998.45 0,-551.44 445.93,-998.46 996.04,-998.46zm0 52.52c521.18,0 943.63,423.53 943.63,945.94 0,522.4 -422.45,945.93 -943.63,945.93 -521.18,0 -943.63,-423.53 -943.63,-945.93 0,-522.41 422.45,-945.94 943.63,-945.94z"/>
   <path class="fil1" d="M4320.73 1550.69c276.17,0 500.03,447.02 500.03,998.46 0,551.43 -223.86,998.45 -500.03,998.45 -276.17,0 -500.03,-447.02 -500.03,-998.45 0,-551.44 223.86,-998.46 500.03,-998.46zm0 52.52c261.64,0 473.72,423.53 473.72,945.94 0,522.4 -212.08,945.93 -473.72,945.93 -261.64,0 -473.72,-423.53 -473.72,-945.93 0,-522.41 212.08,-945.94 473.72,-945.94z"/>
   <polygon class="fil5" points="3399.75,2246.35 5241.31,2246.35 5241.31,2205.34 3399.75,2205.34 "/>
   <polygon class="fil5" points="3482.16,2941.03 5238.24,2938.41 5253.66,2899.67 3485.06,2899.01 "/>
   <path class="fil1" d="M4327.55 1579.11c268.91,0 486.89,440.77 486.89,984.49 0,543.72 -217.98,984.5 -486.89,984.5 -268.9,0 -486.88,-440.78 -486.88,-984.5 0,-543.72 217.98,-984.49 486.88,-984.49zm0 51.79c254.76,0 461.26,417.6 461.26,932.7 0,515.1 -206.5,932.71 -461.26,932.71 -254.76,0 -461.26,-417.61 -461.26,-932.71 0,-515.1 206.5,-932.7 461.26,-932.7z"/>
   <g>
    <g style="clip-path:url(#id0)">
     <polygon class="fil6" points="4388.4,2925.99 2652.26,2936.64 2653.83,3000.54 "/>
     <polygon id="1" class="fil7" points="4388.4,2925.99 2653.56,2989.88 2656.18,3043.08 "/>
     <polygon id="2" class="fil8" points="4388.4,2925.99 2655.65,3032.44 2659.57,3085.56 "/>
     <polygon id="3" class="fil9" points="4388.4,2925.99 2658.79,3074.93 2664.01,3127.94 "/>
     <polygon id="4" class="fil10" points="4388.4,2925.99 2662.97,3117.33 2669.49,3170.19 "/>
     <polygon id="5" class="fil11" points="4388.4,2925.99 2668.18,3159.62 2676,3212.3 "/>
     <polygon id="6" class="fil12" points="4388.4,2925.99 2674.43,3201.77 2683.54,3254.24 "/>
     <polygon id="7" class="fil13" points="4388.4,2925.99 2681.72,3243.75 2692.11,3295.98 "/>
     <polygon id="8" class="fil14" points="4388.4,2925.99 2690.03,3285.53 2701.7,3337.5 "/>
     <polygon id="9" class="fil15" points="4388.4,2925.99 2699.36,3327.11 2712.31,3378.77 "/>
     <polygon id="10" class="fil16" points="4388.4,2925.99 2709.72,3368.44 2723.92,3419.77 "/>
     <polygon id="11" class="fil17" points="4388.4,2925.99 2721.08,3409.5 2736.54,3460.47 "/>
     <polygon id="12" class="fil18" points="4388.4,2925.99 2733.45,3450.27 2750.16,3500.84 "/>
     <polygon id="13" class="fil19" points="4388.4,2925.99 2746.81,3490.73 2764.76,3540.88 "/>
     <polygon id="14" class="fil20" points="4388.4,2925.99 2761.17,3530.85 2780.34,3580.54 "/>
     <polygon id="15" class="fil21" points="4388.4,2925.99 2776.5,3570.6 2796.88,3619.8 "/>
     <polygon id="16" class="fil21" points="4388.4,2925.99 2792.81,3609.96 2814.39,3658.65 "/>
     <polygon id="17" class="fil22" points="4388.4,2925.99 2810.07,3648.91 2832.84,3697.06 "/>
     <polygon id="18" class="fil23" points="4388.4,2925.99 2828.29,3687.43 2852.24,3735 "/>
     <polygon id="19" class="fil24" points="4388.4,2925.99 2847.45,3725.49 2872.55,3772.46 "/>
     <polygon id="20" class="fil25" points="4388.4,2925.99 2867.53,3763.06 2893.78,3809.4 "/>
     <polygon id="21" class="fil26" points="4388.4,2925.99 2888.53,3800.13 2915.91,3845.82 "/>
     <polygon id="22" class="fil27" points="4388.4,2925.99 2910.44,3836.68 2938.93,3881.68 "/>
     <polygon id="23" class="fil28" points="4388.4,2925.99 2933.23,3872.68 2962.82,3916.96 "/>
     <polygon id="24" class="fil29" points="4388.4,2925.99 2956.9,3908.1 2987.57,3951.65 "/>
     <polygon id="25" class="fil30" points="4388.4,2925.99 2981.44,3942.94 3013.16,3985.72 "/>
     <polygon id="26" class="fil30" points="4388.4,2925.99 3006.82,3977.16 3039.58,4019.15 "/>
     <polygon id="27" class="fil31" points="4388.4,2925.99 3033.03,4010.75 3066.82,4051.92 "/>
     <polygon id="28" class="fil32" points="4388.4,2925.99 3060.06,4043.68 3094.85,4084.01 "/>
     <polygon id="29" class="fil33" points="4388.4,2925.99 3087.89,4075.95 3123.66,4115.41 "/>
     <polygon id="30" class="fil34" points="4388.4,2925.99 3116.5,4107.52 3153.23,4146.09 "/>
     <polygon id="31" class="fil35" points="4388.4,2925.99 3145.88,4138.37 3183.54,4176.04 "/>
     <polygon id="32" class="fil36" points="4388.4,2925.99 3176.01,4168.5 3214.58,4205.23 "/>
     <polygon id="33" class="fil37" points="4388.4,2925.99 3206.87,4197.88 3246.33,4233.65 "/>
     <polygon id="34" class="fil38" points="4388.4,2925.99 3238.44,4226.49 3278.77,4261.28 "/>
     <polygon id="35" class="fil39" points="4388.4,2925.99 3270.7,4254.32 3311.87,4288.11 "/>
     <polygon id="36" class="fil40" points="4388.4,2925.99 3303.64,4281.35 3345.62,4314.12 "/>
     <polygon id="37" class="fil40" points="4388.4,2925.99 3337.22,4307.57 3380,4339.29 "/>
     <polygon id="38" class="fil41" points="4388.4,2925.99 3371.45,4332.95 3414.99,4363.62 "/>
     <polygon id="39" class="fil42" points="4388.4,2925.99 3406.28,4357.48 3450.57,4387.07 "/>
     <polygon id="40" class="fil43" points="4388.4,2925.99 3441.71,4381.15 3486.71,4409.65 "/>
     <polygon id="41" class="fil44" points="4388.4,2925.99 3477.7,4403.95 3523.39,4431.33 "/>
     <polygon id="42" class="fil45" points="4388.4,2925.99 3514.25,4425.85 3560.59,4452.1 "/>
     <polygon id="43" class="fil46" points="4388.4,2925.99 3551.32,4446.85 3598.29,4471.96 "/>
     <polygon id="44" class="fil47" points="4388.4,2925.99 3588.9,4466.94 3636.47,4490.88 "/>
     <polygon id="45" class="fil48" points="4388.4,2925.99 3626.95,4486.09 3675.1,4508.87 "/>
     <polygon id="46" class="fil49" points="4388.4,2925.99 3665.47,4504.31 3714.16,4525.89 "/>
     <polygon id="47" class="fil50" points="4388.4,2925.99 3704.42,4521.58 3753.63,4541.96 "/>
     <polygon id="48" class="fil51" points="4388.4,2925.99 3743.79,4537.88 3793.48,4557.05 "/>
     <polygon id="49" class="fil52" points="4388.4,2925.99 3783.54,4553.22 3833.69,4571.16 "/>
     <polygon id="50" class="fil53" points="4388.4,2925.99 3823.66,4567.57 3874.23,4584.28 "/>
     <polygon id="51" class="fil54" points="4388.4,2925.99 3864.11,4580.93 3915.08,4596.4 "/>
     <polygon id="52" class="fil55" points="4388.4,2925.99 3904.88,4593.3 3956.22,4607.51 "/>
     <polygon id="53" class="fil56" points="4388.4,2925.99 3945.95,4604.67 3997.61,4617.61 "/>
     <polygon id="54" class="fil57" points="4388.4,2925.99 3987.28,4615.02 4039.24,4626.69 "/>
     <polygon id="55" class="fil58" points="4388.4,2925.99 4028.85,4624.35 4081.09,4634.75 "/>
     <polygon id="56" class="fil59" points="4388.4,2925.99 4070.64,4632.67 4123.11,4641.77 "/>
     <polygon id="57" class="fil60" points="4388.4,2925.99 4112.62,4639.95 4165.3,4647.77 "/>
     <polygon id="58" class="fil61" points="4388.4,2925.99 4154.76,4646.2 4207.62,4652.72 "/>
     <polygon id="59" class="fil62" points="4388.4,2925.99 4197.05,4651.42 4250.05,4656.64 "/>
     <polygon id="60" class="fil63" points="4388.4,2925.99 4239.45,4655.59 4292.57,4659.51 "/>
     <polygon id="61" class="fil64" points="4388.4,2925.99 4281.94,4658.73 4335.14,4661.34 "/>
     <polygon id="62" class="fil65" points="4388.4,2925.99 4324.5,4660.82 4377.74,4662.13 "/>
     <polygon id="63" class="fil66" points="4388.4,2925.99 4367.09,4661.87 4420.35,4661.87 "/>
     <polygon id="64" class="fil67" points="4388.4,2925.99 4409.7,4661.87 4462.94,4660.56 "/>
     <polygon id="65" class="fil68" points="4388.4,2925.99 4452.29,4660.82 4505.49,4658.21 "/>
     <polygon id="66" class="fil69" points="4388.4,2925.99 4494.85,4658.73 4547.97,4654.81 "/>
     <polygon id="67" class="fil70" points="4388.4,2925.99 4537.34,4655.59 4590.35,4650.37 "/>
     <polygon id="68" class="fil71" points="4388.4,2925.99 4579.74,4651.42 4632.6,4644.9 "/>
     <polygon id="69" class="fil72" points="4388.4,2925.99 4622.03,4646.2 4674.71,4638.39 "/>
     <polygon id="70" class="fil73" points="4388.4,2925.99 4664.18,4639.95 4716.65,4630.85 "/>
     <polygon id="71" class="fil74" points="4388.4,2925.99 4706.16,4632.67 4758.39,4622.28 "/>
     <polygon id="72" class="fil75" points="4388.4,2925.99 4747.94,4624.35 4799.91,4612.69 "/>
     <polygon id="73" class="fil76" points="4388.4,2925.99 4789.52,4615.02 4841.18,4602.08 "/>
     <polygon id="74" class="fil77" points="4388.4,2925.99 4830.85,4604.67 4882.18,4590.46 "/>
     <polygon id="75" class="fil78" points="4388.4,2925.99 4871.91,4593.3 4922.88,4577.84 "/>
     <polygon id="76" class="fil79" points="4388.4,2925.99 4912.68,4580.93 4963.25,4564.23 "/>
     <polygon id="77" class="fil80" points="4388.4,2925.99 4953.14,4567.57 5003.29,4549.63 "/>
     <polygon id="78" class="fil81" points="4388.4,2925.99 4993.25,4553.22 5042.95,4534.05 "/>
     <polygon id="79" class="fil82" points="4388.4,2925.99 5033.01,4537.88 5082.21,4517.5 "/>
     <polygon id="80" class="fil83" points="4388.4,2925.99 5072.37,4521.58 5121.06,4499.99 "/>
     <polygon id="81" class="fil84" points="4388.4,2925.99 5111.32,4504.31 5159.47,4481.54 "/>
     <polygon id="82" class="fil85" points="4388.4,2925.99 5149.84,4486.09 5197.41,4462.15 "/>
     <polygon id="83" class="fil86" points="4388.4,2925.99 5187.9,4466.94 5234.87,4441.83 "/>
     <polygon id="84" class="fil87" points="4388.4,2925.99 5225.47,4446.85 5271.81,4420.6 "/>
     <polygon id="85" class="fil88" points="4388.4,2925.99 5262.54,4425.85 5308.23,4398.47 "/>
     <polygon id="86" class="fil89" points="4388.4,2925.99 5299.09,4403.95 5344.09,4375.45 "/>
     <polygon id="87" class="fil90" points="4388.4,2925.99 5335.09,4381.15 5379.37,4351.56 "/>
     <polygon id="88" class="fil91" points="4388.4,2925.99 5370.51,4357.48 5414.06,4326.81 "/>
     <polygon id="89" class="fil92" points="4388.4,2925.99 5405.35,4332.95 5448.13,4301.22 "/>
     <polygon id="90" class="fil93" points="4388.4,2925.99 5439.57,4307.57 5481.56,4274.8 "/>
     <polygon id="91" class="fil94" points="4388.4,2925.99 5473.16,4281.35 5514.33,4247.57 "/>
     <polygon id="92" class="fil95" points="4388.4,2925.99 5506.09,4254.32 5546.42,4219.54 "/>
     <polygon id="93" class="fil96" points="4388.4,2925.99 5538.36,4226.49 5577.82,4190.73 "/>
     <polygon id="94" class="fil97" points="4388.4,2925.99 5569.93,4197.88 5608.5,4161.16 "/>
     <polygon id="95" class="fil98" points="4388.4,2925.99 5600.78,4168.5 5638.45,4130.84 "/>
     <polygon id="96" class="fil99" points="4388.4,2925.99 5630.91,4138.37 5667.64,4099.8 "/>
     <polygon id="97" class="fil100" points="4388.4,2925.99 5660.29,4107.52 5696.06,4068.05 "/>
     <polygon id="98" class="fil101" points="4388.4,2925.99 5688.9,4075.95 5723.69,4035.62 "/>
     <polygon id="99" class="fil102" points="4388.4,2925.99 5716.73,4043.68 5750.52,4002.51 "/>
     <polygon id="100" class="fil103" points="4388.4,2925.99 5743.76,4010.75 5776.53,3968.76 "/>
     <polygon id="101" class="fil104" points="4388.4,2925.99 5769.98,3977.16 5801.7,3934.38 "/>
     <polygon id="102" class="fil105" points="4388.4,2925.99 5795.36,3942.94 5826.03,3899.39 "/>
     <polygon id="103" class="fil106" points="4388.4,2925.99 5819.89,3908.1 5849.48,3863.82 "/>
     <polygon id="104" class="fil107" points="4388.4,2925.99 5843.56,3872.68 5872.06,3827.68 "/>
     <polygon id="105" class="fil108" points="4388.4,2925.99 5866.36,3836.68 5893.74,3791 "/>
     <polygon id="106" class="fil109" points="4388.4,2925.99 5888.26,3800.13 5914.51,3753.79 "/>
     <polygon id="107" class="fil110" points="4388.4,2925.99 5909.26,3763.06 5934.37,3716.09 "/>
     <polygon id="108" class="fil111" points="4388.4,2925.99 5929.35,3725.49 5953.29,3677.91 "/>
     <polygon id="109" class="fil112" points="4388.4,2925.99 5948.5,3687.43 5971.28,3639.28 "/>
     <polygon id="110" class="fil113" points="4388.4,2925.99 5966.72,3648.91 5988.3,3600.22 "/>
     <polygon id="111" class="fil114" points="4388.4,2925.99 5983.99,3609.96 6004.37,3560.75 "/>
     <polygon id="112" class="fil115" points="4388.4,2925.99 6000.29,3570.6 6019.46,3520.91 "/>
     <polygon id="113" class="fil116" points="4388.4,2925.99 6015.63,3530.85 6033.57,3480.7 "/>
     <polygon id="114" class="fil117" points="4388.4,2925.99 6029.98,3490.73 6046.69,3440.16 "/>
     <polygon id="115" class="fil118" points="4388.4,2925.99 6043.34,3450.27 6058.81,3399.3 "/>
     <polygon id="116" class="fil119" points="4388.4,2925.99 6055.71,3409.5 6069.92,3358.17 "/>
     <polygon id="117" class="fil120" points="4388.4,2925.99 6067.08,3368.44 6080.02,3316.77 "/>
     <polygon id="118" class="fil121" points="4388.4,2925.99 6077.43,3327.11 6089.1,3275.14 "/>
     <polygon id="119" class="fil122" points="4388.4,2925.99 6086.76,3285.53 6097.15,3233.3 "/>
     <polygon id="120" class="fil123" points="4388.4,2925.99 6095.08,3243.75 6104.18,3191.27 "/>
     <polygon id="121" class="fil124" points="4388.4,2925.99 6102.36,3201.77 6110.18,3149.08 "/>
     <polygon id="122" class="fil125" points="4388.4,2925.99 6108.61,3159.62 6115.13,3106.76 "/>
     <polygon id="123" class="fil126" points="4388.4,2925.99 6113.83,3117.33 6119.05,3064.33 "/>
     <polygon id="124" class="fil127" points="4388.4,2925.99 6118,3074.93 6121.92,3021.82 "/>
     <polygon id="125" class="fil128" points="4388.4,2925.99 6121.14,3032.44 6123.75,2979.24 "/>
     <polygon id="126" class="fil129" points="4388.4,2925.99 6123.23,2989.88 6124.54,2936.64 "/>
     <polygon id="127" class="fil130" points="4388.4,2925.99 6124.27,2947.29 6124.27,2894.03 "/>
     <polygon id="128" class="fil131" points="4388.4,2925.99 6124.27,2904.68 6122.97,2851.44 "/>
     <polygon id="129" class="fil132" points="4388.4,2925.99 6123.23,2862.09 6120.62,2808.89 "/>
     <polygon id="130" class="fil133" points="4388.4,2925.99 6121.14,2819.53 6117.22,2766.42 "/>
     <polygon id="131" class="fil134" points="4388.4,2925.99 6118,2777.04 6112.78,2724.04 "/>
     <polygon id="132" class="fil135" points="4388.4,2925.99 6113.83,2734.64 6107.31,2681.78 "/>
     <polygon id="133" class="fil136" points="4388.4,2925.99 6108.61,2692.35 6100.8,2639.67 "/>
     <polygon id="134" class="fil137" points="4388.4,2925.99 6102.36,2650.21 6093.26,2597.73 "/>
     <polygon id="135" class="fil138" points="4388.4,2925.99 6095.08,2608.23 6084.69,2555.99 "/>
     <polygon id="136" class="fil139" points="4388.4,2925.99 6086.76,2566.44 6075.09,2514.47 "/>
     <polygon id="137" class="fil140" points="4388.4,2925.99 6077.43,2524.87 6064.49,2473.2 "/>
     <polygon id="138" class="fil141" points="4388.4,2925.99 6067.08,2483.54 6052.87,2432.21 "/>
     <polygon id="139" class="fil142" points="4388.4,2925.99 6055.71,2442.47 6040.25,2391.51 "/>
     <polygon id="140" class="fil143" points="4388.4,2925.99 6043.34,2401.7 6026.64,2351.13 "/>
     <polygon id="141" class="fil144" points="4388.4,2925.99 6029.98,2361.25 6012.04,2311.1 "/>
     <polygon id="142" class="fil145" points="4388.4,2925.99 6015.63,2321.13 5996.46,2271.44 "/>
     <polygon id="143" class="fil146" points="4388.4,2925.99 6000.29,2281.38 5979.91,2232.17 "/>
     <polygon id="144" class="fil147" points="4388.4,2925.99 5983.99,2242.01 5962.4,2193.32 "/>
     <polygon id="145" class="fil148" points="4388.4,2925.99 5966.72,2203.06 5943.95,2154.91 "/>
     <polygon id="146" class="fil149" points="4388.4,2925.99 5948.5,2164.55 5924.56,2116.97 "/>
     <polygon id="147" class="fil150" points="4388.4,2925.99 5929.35,2126.49 5904.24,2079.52 "/>
     <polygon id="148" class="fil151" points="4388.4,2925.99 5909.26,2088.91 5883.01,2042.57 "/>
     <polygon id="149" class="fil152" points="4388.4,2925.99 5888.26,2051.84 5860.88,2006.16 "/>
     <polygon id="150" class="fil153" points="4388.4,2925.99 5866.36,2015.29 5837.86,1970.3 "/>
     <polygon id="151" class="fil154" points="4388.4,2925.99 5843.56,1979.3 5813.97,1935.01 "/>
     <polygon id="152" class="fil155" points="4388.4,2925.99 5819.89,1943.87 5789.22,1900.33 "/>
     <polygon id="153" class="fil156" points="4388.4,2925.99 5795.36,1909.04 5763.63,1866.26 "/>
     <polygon id="154" class="fil157" points="4388.4,2925.99 5769.98,1874.81 5737.21,1832.83 "/>
     <polygon id="155" class="fil158" points="4388.4,2925.99 5743.76,1841.23 5709.98,1800.05 "/>
     <polygon id="156" class="fil159" points="4388.4,2925.99 5716.73,1808.29 5681.95,1767.96 "/>
     <polygon id="157" class="fil160" points="4388.4,2925.99 5688.9,1776.03 5653.14,1736.56 "/>
     <polygon id="158" class="fil161" points="4388.4,2925.99 5660.29,1744.46 5623.57,1705.88 "/>
     <polygon id="159" class="fil162" points="4388.4,2925.99 5630.91,1713.6 5593.25,1675.94 "/>
     <polygon id="160" class="fil163" points="4388.4,2925.99 5600.78,1683.47 5562.21,1646.75 "/>
     <polygon id="161" class="fil164" points="4388.4,2925.99 5569.93,1654.09 5530.46,1618.33 "/>
     <polygon id="162" class="fil165" points="4388.4,2925.99 5538.36,1625.48 5498.03,1590.69 "/>
     <polygon id="163" class="fil166" points="4388.4,2925.99 5506.09,1597.65 5464.92,1563.86 "/>
     <polygon id="164" class="fil167" points="4388.4,2925.99 5473.16,1570.62 5431.17,1537.85 "/>
     <polygon id="165" class="fil168" points="4388.4,2925.99 5439.57,1544.41 5396.79,1512.68 "/>
     <polygon id="166" class="fil169" points="4388.4,2925.99 5405.35,1519.03 5361.8,1488.36 "/>
     <polygon id="167" class="fil170" points="4388.4,2925.99 5370.51,1494.49 5326.23,1464.9 "/>
     <polygon id="168" class="fil171" points="4388.4,2925.99 5335.09,1470.82 5290.09,1442.33 "/>
     <polygon id="169" class="fil172" points="4388.4,2925.99 5299.09,1448.03 5253.41,1420.65 "/>
     <polygon id="170" class="fil173" points="4388.4,2925.99 5262.54,1426.12 5216.2,1399.87 "/>
     <polygon id="171" class="fil174" points="4388.4,2925.99 5225.47,1405.12 5178.5,1380.01 "/>
     <polygon id="172" class="fil175" points="4388.4,2925.99 5187.9,1385.04 5140.32,1361.09 "/>
     <polygon id="173" class="fil176" points="4388.4,2925.99 5149.84,1365.88 5101.69,1343.11 "/>
     <polygon id="174" class="fil177" points="4388.4,2925.99 5111.32,1347.66 5062.63,1326.08 "/>
     <polygon id="175" class="fil178" points="4388.4,2925.99 5072.37,1330.4 5023.16,1310.02 "/>
     <polygon id="176" class="fil179" points="4388.4,2925.99 5033.01,1314.09 4983.31,1294.92 "/>
     <polygon id="177" class="fil180" points="4388.4,2925.99 4993.25,1298.76 4943.11,1280.82 "/>
     <polygon id="178" class="fil181" points="4388.4,2925.99 4953.14,1284.4 4902.57,1267.7 "/>
     <polygon id="179" class="fil6" points="4388.4,2925.99 4912.68,1271.04 4861.71,1255.58 "/>
     <polygon id="180" class="fil182" points="4388.4,2925.99 4871.91,1258.67 4820.58,1244.47 "/>
     <polygon id="181" class="fil183" points="4388.4,2925.99 4830.85,1247.31 4779.18,1234.37 "/>
     <polygon id="182" class="fil184" points="4388.4,2925.99 4789.52,1236.95 4737.55,1225.29 "/>
     <polygon id="183" class="fil185" points="4388.4,2925.99 4747.94,1227.62 4695.71,1217.23 "/>
     <polygon id="184" class="fil186" points="4388.4,2925.99 4706.16,1219.31 4653.68,1210.2 "/>
     <polygon id="185" class="fil187" points="4388.4,2925.99 4664.18,1212.02 4611.49,1204.21 "/>
     <polygon id="186" class="fil188" points="4388.4,2925.99 4622.03,1205.77 4569.17,1199.25 "/>
     <polygon id="187" class="fil189" points="4388.4,2925.99 4579.74,1200.56 4526.74,1195.34 "/>
     <polygon id="188" class="fil190" points="4388.4,2925.99 4537.34,1196.38 4484.23,1192.46 "/>
     <polygon id="189" class="fil191" points="4388.4,2925.99 4494.85,1193.25 4441.65,1190.63 "/>
     <polygon id="190" class="fil192" points="4388.4,2925.99 4452.29,1191.15 4399.05,1189.85 "/>
     <polygon id="191" class="fil193" points="4388.4,2925.99 4409.7,1190.11 4356.44,1190.11 "/>
     <polygon id="192" class="fil194" points="4388.4,2925.99 4367.09,1190.11 4313.85,1191.42 "/>
     <polygon id="193" class="fil189" points="4388.4,2925.99 4324.5,1191.15 4271.3,1193.77 "/>
     <polygon id="194" class="fil195" points="4388.4,2925.99 4281.94,1193.25 4228.83,1197.16 "/>
     <polygon id="195" class="fil196" points="4388.4,2925.99 4239.45,1196.38 4186.45,1201.6 "/>
     <polygon id="196" class="fil197" points="4388.4,2925.99 4197.05,1200.56 4144.19,1207.08 "/>
     <polygon id="197" class="fil198" points="4388.4,2925.99 4154.76,1205.77 4102.08,1213.59 "/>
     <polygon id="198" class="fil199" points="4388.4,2925.99 4112.62,1212.02 4060.14,1221.13 "/>
     <polygon id="199" class="fil200" points="4388.4,2925.99 4070.64,1219.31 4018.4,1229.7 "/>
     <polygon id="200" class="fil201" points="4388.4,2925.99 4028.85,1227.62 3976.88,1239.29 "/>
     <polygon id="201" class="fil202" points="4388.4,2925.99 3987.28,1236.95 3935.61,1249.9 "/>
     <polygon id="202" class="fil203" points="4388.4,2925.99 3945.95,1247.31 3894.62,1261.51 "/>
     <polygon id="203" class="fil204" points="4388.4,2925.99 3904.88,1258.67 3853.92,1274.13 "/>
     <polygon id="204" class="fil205" points="4388.4,2925.99 3864.11,1271.04 3813.54,1287.75 "/>
     <polygon id="205" class="fil206" points="4388.4,2925.99 3823.66,1284.4 3773.51,1302.35 "/>
     <polygon id="206" class="fil207" points="4388.4,2925.99 3783.54,1298.76 3733.85,1317.93 "/>
     <polygon id="207" class="fil208" points="4388.4,2925.99 3743.79,1314.09 3694.58,1334.47 "/>
     <polygon id="208" class="fil209" points="4388.4,2925.99 3704.42,1330.4 3655.73,1351.98 "/>
     <polygon id="209" class="fil210" points="4388.4,2925.99 3665.47,1347.66 3617.32,1370.44 "/>
     <polygon id="210" class="fil211" points="4388.4,2925.99 3626.95,1365.88 3579.38,1389.83 "/>
     <polygon id="211" class="fil212" points="4388.4,2925.99 3588.9,1385.04 3541.93,1410.14 "/>
     <polygon id="212" class="fil213" points="4388.4,2925.99 3551.32,1405.12 3504.98,1431.37 "/>
     <polygon id="213" class="fil214" points="4388.4,2925.99 3514.25,1426.12 3468.57,1453.5 "/>
     <polygon id="214" class="fil215" points="4388.4,2925.99 3477.7,1448.03 3432.71,1476.52 "/>
     <polygon id="215" class="fil216" points="4388.4,2925.99 3441.71,1470.82 3397.42,1500.41 "/>
     <polygon id="216" class="fil217" points="4388.4,2925.99 3406.28,1494.49 3362.74,1525.16 "/>
     <polygon id="217" class="fil218" points="4388.4,2925.99 3371.45,1519.03 3328.67,1550.75 "/>
     <polygon id="218" class="fil219" points="4388.4,2925.99 3337.22,1544.41 3295.24,1577.17 "/>
     <polygon id="219" class="fil220" points="4388.4,2925.99 3303.64,1570.62 3262.46,1604.41 "/>
     <polygon id="220" class="fil221" points="4388.4,2925.99 3270.7,1597.65 3230.37,1632.44 "/>
     <polygon id="221" class="fil222" points="4388.4,2925.99 3238.44,1625.48 3198.97,1661.25 "/>
     <polygon id="222" class="fil223" points="4388.4,2925.99 3206.87,1654.09 3168.29,1690.82 "/>
     <polygon id="223" class="fil224" points="4388.4,2925.99 3176.01,1683.47 3138.35,1721.13 "/>
     <polygon id="224" class="fil225" points="4388.4,2925.99 3145.88,1713.6 3109.16,1752.17 "/>
     <polygon id="225" class="fil226" points="4388.4,2925.99 3116.5,1744.46 3080.73,1783.92 "/>
     <polygon id="226" class="fil227" points="4388.4,2925.99 3087.89,1776.03 3053.1,1816.36 "/>
     <polygon id="227" class="fil228" points="4388.4,2925.99 3060.06,1808.29 3026.27,1849.46 "/>
     <polygon id="228" class="fil229" points="4388.4,2925.99 3033.03,1841.23 3000.26,1883.21 "/>
     <polygon id="229" class="fil230" points="4388.4,2925.99 3006.82,1874.81 2975.09,1917.59 "/>
     <polygon id="230" class="fil231" points="4388.4,2925.99 2981.44,1909.04 2950.77,1952.58 "/>
     <polygon id="231" class="fil232" points="4388.4,2925.99 2956.9,1943.87 2927.31,1988.16 "/>
     <polygon id="232" class="fil233" points="4388.4,2925.99 2933.23,1979.3 2904.74,2024.3 "/>
     <polygon id="233" class="fil234" points="4388.4,2925.99 2910.44,2015.29 2883.05,2060.98 "/>
     <polygon id="234" class="fil235" points="4388.4,2925.99 2888.53,2051.84 2862.28,2098.18 "/>
     <polygon id="235" class="fil236" points="4388.4,2925.99 2867.53,2088.91 2842.42,2135.88 "/>
     <polygon id="236" class="fil237" points="4388.4,2925.99 2847.45,2126.49 2823.5,2174.06 "/>
     <polygon id="237" class="fil238" points="4388.4,2925.99 2828.29,2164.55 2805.52,2212.69 "/>
     <polygon id="238" class="fil239" points="4388.4,2925.99 2810.07,2203.06 2788.49,2251.75 "/>
     <polygon id="239" class="fil240" points="4388.4,2925.99 2792.81,2242.01 2772.42,2291.22 "/>
     <polygon id="240" class="fil241" points="4388.4,2925.99 2776.5,2281.38 2757.33,2331.07 "/>
     <polygon id="241" class="fil242" points="4388.4,2925.99 2761.17,2321.13 2743.22,2371.28 "/>
     <polygon id="242" class="fil243" points="4388.4,2925.99 2746.81,2361.25 2730.11,2411.82 "/>
     <polygon id="243" class="fil244" points="4388.4,2925.99 2733.45,2401.7 2717.99,2452.67 "/>
     <polygon id="244" class="fil245" points="4388.4,2925.99 2721.08,2442.47 2706.88,2493.81 "/>
     <polygon id="245" class="fil246" points="4388.4,2925.99 2709.72,2483.54 2696.78,2535.2 "/>
     <polygon id="246" class="fil247" points="4388.4,2925.99 2699.36,2524.87 2687.69,2576.83 "/>
     <polygon id="247" class="fil248" points="4388.4,2925.99 2690.03,2566.44 2679.64,2618.68 "/>
     <polygon id="248" class="fil249" points="4388.4,2925.99 2681.72,2608.23 2672.61,2660.7 "/>
     <polygon id="249" class="fil250" points="4388.4,2925.99 2674.43,2650.21 2666.62,2702.89 "/>
     <polygon id="250" class="fil251" points="4388.4,2925.99 2668.18,2692.35 2661.66,2745.21 "/>
     <polygon id="251" class="fil252" points="4388.4,2925.99 2662.97,2734.64 2657.74,2787.64 "/>
     <polygon id="252" class="fil253" points="4388.4,2925.99 2658.79,2777.04 2654.87,2830.16 "/>
     <polygon id="253" class="fil254" points="4388.4,2925.99 2655.65,2819.53 2653.04,2872.73 "/>
     <polygon id="254" class="fil255" points="4388.4,2925.99 2653.56,2862.09 2652.26,2915.33 "/>
     <polygon id="255" class="fil256" points="4388.4,2925.99 2652.52,2904.68 2652.52,2947.29 "/>
    </g>
   </g>
   <g>
    <g style="clip-path:url(#id1)">
     <polygon class="fil6" points="4358.64,2925.99 2882.11,2935.05 2883.44,2989.39 "/>
     <polygon id="1" class="fil7" points="4358.64,2925.99 2883.22,2980.33 2885.44,3025.57 "/>
     <polygon id="2" class="fil8" points="4358.64,2925.99 2885,3016.52 2888.33,3061.7 "/>
     <polygon id="3" class="fil9" points="4358.64,2925.99 2887.66,3052.66 2892.1,3097.74 "/>
     <polygon id="4" class="fil10" points="4358.64,2925.99 2891.21,3088.72 2896.76,3133.68 "/>
     <polygon id="5" class="fil11" points="4358.64,2925.99 2895.65,3124.68 2902.3,3169.49 "/>
     <polygon id="6" class="fil12" points="4358.64,2925.99 2900.97,3160.53 2908.71,3205.16 "/>
     <polygon id="7" class="fil13" points="4358.64,2925.99 2907.16,3196.23 2916,3240.66 "/>
     <polygon id="8" class="fil14" points="4358.64,2925.99 2914.23,3231.77 2924.15,3275.97 "/>
     <polygon id="9" class="fil15" points="4358.64,2925.99 2922.17,3267.13 2933.18,3311.06 "/>
     <polygon id="10" class="fil16" points="4358.64,2925.99 2930.97,3302.28 2943.06,3345.93 "/>
     <polygon id="11" class="fil17" points="4358.64,2925.99 2940.64,3337.2 2953.79,3380.54 "/>
     <polygon id="12" class="fil18" points="4358.64,2925.99 2951.16,3371.87 2965.37,3414.88 "/>
     <polygon id="13" class="fil19" points="4358.64,2925.99 2962.52,3406.28 2977.78,3448.93 "/>
     <polygon id="14" class="fil20" points="4358.64,2925.99 2974.73,3440.4 2991.03,3482.66 "/>
     <polygon id="15" class="fil21" points="4358.64,2925.99 2987.77,3474.21 3005.11,3516.06 "/>
     <polygon id="16" class="fil21" points="4358.64,2925.99 3001.64,3507.68 3020,3549.09 "/>
     <polygon id="17" class="fil22" points="4358.64,2925.99 3016.32,3540.81 3035.69,3581.76 "/>
     <polygon id="18" class="fil23" points="4358.64,2925.99 3031.82,3573.57 3052.18,3614.03 "/>
     <polygon id="19" class="fil24" points="4358.64,2925.99 3048.11,3605.93 3069.46,3645.88 "/>
     <polygon id="20" class="fil25" points="4358.64,2925.99 3065.19,3637.89 3087.52,3677.3 "/>
     <polygon id="21" class="fil26" points="4358.64,2925.99 3083.05,3669.42 3106.34,3708.27 "/>
     <polygon id="22" class="fil27" points="4358.64,2925.99 3101.68,3700.5 3125.91,3738.77 "/>
     <polygon id="23" class="fil28" points="4358.64,2925.99 3121.07,3731.12 3146.23,3768.78 "/>
     <polygon id="24" class="fil29" points="4358.64,2925.99 3141.2,3761.24 3167.28,3798.28 "/>
     <polygon id="25" class="fil30" points="4358.64,2925.99 3162.06,3790.87 3189.05,3827.25 "/>
     <polygon id="26" class="fil30" points="4358.64,2925.99 3183.65,3819.97 3211.52,3855.68 "/>
     <polygon id="27" class="fil31" points="4358.64,2925.99 3205.94,3848.54 3234.68,3883.56 "/>
     <polygon id="28" class="fil32" points="4358.64,2925.99 3228.93,3876.55 3258.52,3910.85 "/>
     <polygon id="29" class="fil33" points="4358.64,2925.99 3252.6,3903.99 3283.02,3937.55 "/>
     <polygon id="30" class="fil34" points="4358.64,2925.99 3276.93,3930.84 3308.17,3963.64 "/>
     <polygon id="31" class="fil35" points="4358.64,2925.99 3301.92,3957.08 3333.95,3989.11 "/>
     <polygon id="32" class="fil36" points="4358.64,2925.99 3327.54,3982.71 3360.35,4013.94 "/>
     <polygon id="33" class="fil37" points="4358.64,2925.99 3353.78,4007.69 3387.35,4038.11 "/>
     <polygon id="34" class="fil38" points="4358.64,2925.99 3380.63,4032.03 3414.93,4061.61 "/>
     <polygon id="35" class="fil39" points="4358.64,2925.99 3408.07,4055.69 3443.09,4084.43 "/>
     <polygon id="36" class="fil40" points="4358.64,2925.99 3436.08,4078.68 3471.79,4106.55 "/>
     <polygon id="37" class="fil40" points="4358.64,2925.99 3464.65,4100.98 3501.03,4127.96 "/>
     <polygon id="38" class="fil41" points="4358.64,2925.99 3493.75,4122.56 3530.79,4148.64 "/>
     <polygon id="39" class="fil42" points="4358.64,2925.99 3523.38,4143.43 3561.04,4168.59 "/>
     <polygon id="40" class="fil43" points="4358.64,2925.99 3553.51,4163.56 3591.78,4187.79 "/>
     <polygon id="41" class="fil44" points="4358.64,2925.99 3584.12,4182.94 3622.97,4206.23 "/>
     <polygon id="42" class="fil45" points="4358.64,2925.99 3615.2,4201.57 3654.61,4223.9 "/>
     <polygon id="43" class="fil46" points="4358.64,2925.99 3646.73,4219.43 3686.68,4240.79 "/>
     <polygon id="44" class="fil47" points="4358.64,2925.99 3678.69,4236.51 3719.15,4256.88 "/>
     <polygon id="45" class="fil48" points="4358.64,2925.99 3711.05,4252.81 3752,4272.17 "/>
     <polygon id="46" class="fil49" points="4358.64,2925.99 3743.81,4268.3 3785.22,4286.66 "/>
     <polygon id="47" class="fil50" points="4358.64,2925.99 3776.94,4282.98 3818.79,4300.32 "/>
     <polygon id="48" class="fil51" points="4358.64,2925.99 3810.42,4296.85 3852.68,4313.15 "/>
     <polygon id="49" class="fil52" points="4358.64,2925.99 3844.22,4309.89 3886.87,4325.15 "/>
     <polygon id="50" class="fil53" points="4358.64,2925.99 3878.34,4322.1 3921.35,4336.31 "/>
     <polygon id="51" class="fil54" points="4358.64,2925.99 3912.75,4333.47 3956.09,4346.61 "/>
     <polygon id="52" class="fil55" points="4358.64,2925.99 3947.42,4343.98 3991.08,4356.07 "/>
     <polygon id="53" class="fil56" points="4358.64,2925.99 3982.35,4353.65 4026.29,4364.66 "/>
     <polygon id="54" class="fil57" points="4358.64,2925.99 4017.5,4362.45 4061.69,4372.38 "/>
     <polygon id="55" class="fil58" points="4358.64,2925.99 4052.85,4370.39 4097.28,4379.23 "/>
     <polygon id="56" class="fil59" points="4358.64,2925.99 4088.39,4377.46 4133.02,4385.21 "/>
     <polygon id="57" class="fil60" points="4358.64,2925.99 4124.09,4383.66 4168.9,4390.3 "/>
     <polygon id="58" class="fil61" points="4358.64,2925.99 4159.94,4388.97 4204.89,4394.52 "/>
     <polygon id="59" class="fil62" points="4358.64,2925.99 4195.9,4393.41 4240.98,4397.85 "/>
     <polygon id="60" class="fil63" points="4358.64,2925.99 4231.96,4396.96 4277.14,4400.29 "/>
     <polygon id="61" class="fil64" points="4358.64,2925.99 4268.1,4399.63 4313.34,4401.85 "/>
     <polygon id="62" class="fil65" points="4358.64,2925.99 4304.29,4401.41 4349.58,4402.52 "/>
     <polygon id="63" class="fil66" points="4358.64,2925.99 4340.52,4402.29 4385.81,4402.29 "/>
     <polygon id="64" class="fil67" points="4358.64,2925.99 4376.75,4402.29 4422.04,4401.18 "/>
     <polygon id="65" class="fil68" points="4358.64,2925.99 4412.98,4401.41 4458.22,4399.18 "/>
     <polygon id="66" class="fil69" points="4358.64,2925.99 4449.17,4399.63 4494.34,4396.29 "/>
     <polygon id="67" class="fil70" points="4358.64,2925.99 4485.31,4396.96 4530.39,4392.52 "/>
     <polygon id="68" class="fil71" points="4358.64,2925.99 4521.37,4393.41 4566.33,4387.87 "/>
     <polygon id="69" class="fil72" points="4358.64,2925.99 4557.33,4388.97 4602.14,4382.33 "/>
     <polygon id="70" class="fil73" points="4358.64,2925.99 4593.18,4383.66 4637.81,4375.91 "/>
     <polygon id="71" class="fil74" points="4358.64,2925.99 4628.88,4377.46 4673.31,4368.63 "/>
     <polygon id="72" class="fil75" points="4358.64,2925.99 4664.42,4370.39 4708.62,4360.47 "/>
     <polygon id="73" class="fil76" points="4358.64,2925.99 4699.77,4362.45 4743.71,4351.45 "/>
     <polygon id="74" class="fil77" points="4358.64,2925.99 4734.92,4353.65 4778.58,4341.57 "/>
     <polygon id="75" class="fil78" points="4358.64,2925.99 4769.85,4343.98 4813.19,4330.84 "/>
     <polygon id="76" class="fil79" points="4358.64,2925.99 4804.52,4333.47 4847.53,4319.26 "/>
     <polygon id="77" class="fil80" points="4358.64,2925.99 4838.93,4322.1 4881.58,4306.84 "/>
     <polygon id="78" class="fil81" points="4358.64,2925.99 4873.05,4309.89 4915.31,4293.59 "/>
     <polygon id="79" class="fil82" points="4358.64,2925.99 4906.86,4296.85 4948.7,4279.52 "/>
     <polygon id="80" class="fil83" points="4358.64,2925.99 4940.33,4282.98 4981.74,4264.63 "/>
     <polygon id="81" class="fil84" points="4358.64,2925.99 4973.46,4268.3 5014.41,4248.93 "/>
     <polygon id="82" class="fil85" points="4358.64,2925.99 5006.22,4252.81 5046.68,4232.44 "/>
     <polygon id="83" class="fil86" points="4358.64,2925.99 5038.58,4236.51 5078.53,4215.16 "/>
     <polygon id="84" class="fil87" points="4358.64,2925.99 5070.54,4219.43 5109.95,4197.11 "/>
     <polygon id="85" class="fil88" points="4358.64,2925.99 5102.07,4201.57 5140.92,4178.29 "/>
     <polygon id="86" class="fil89" points="4358.64,2925.99 5133.15,4182.94 5171.42,4158.71 "/>
     <polygon id="87" class="fil90" points="4358.64,2925.99 5163.76,4163.56 5201.43,4138.39 "/>
     <polygon id="88" class="fil91" points="4358.64,2925.99 5193.89,4143.43 5230.93,4117.34 "/>
     <polygon id="89" class="fil92" points="4358.64,2925.99 5223.52,4122.56 5259.9,4095.58 "/>
     <polygon id="90" class="fil93" points="4358.64,2925.99 5252.62,4100.98 5288.33,4073.11 "/>
     <polygon id="91" class="fil94" points="4358.64,2925.99 5281.19,4078.68 5316.2,4049.95 "/>
     <polygon id="92" class="fil95" points="4358.64,2925.99 5309.2,4055.69 5343.5,4026.11 "/>
     <polygon id="93" class="fil96" points="4358.64,2925.99 5336.64,4032.03 5370.2,4001.61 "/>
     <polygon id="94" class="fil97" points="4358.64,2925.99 5363.49,4007.69 5396.29,3976.46 "/>
     <polygon id="95" class="fil98" points="4358.64,2925.99 5389.73,3982.71 5421.76,3950.68 "/>
     <polygon id="96" class="fil99" points="4358.64,2925.99 5415.35,3957.08 5446.59,3924.28 "/>
     <polygon id="97" class="fil100" points="4358.64,2925.99 5440.34,3930.84 5470.76,3897.28 "/>
     <polygon id="98" class="fil101" points="4358.64,2925.99 5464.67,3903.99 5494.26,3869.69 "/>
     <polygon id="99" class="fil102" points="4358.64,2925.99 5488.34,3876.55 5517.08,3841.54 "/>
     <polygon id="100" class="fil103" points="4358.64,2925.99 5511.33,3848.54 5539.2,3812.83 "/>
     <polygon id="101" class="fil104" points="4358.64,2925.99 5533.62,3819.97 5560.61,3783.59 "/>
     <polygon id="102" class="fil105" points="4358.64,2925.99 5555.21,3790.87 5581.29,3753.84 "/>
     <polygon id="103" class="fil106" points="4358.64,2925.99 5576.07,3761.24 5601.24,3723.58 "/>
     <polygon id="104" class="fil107" points="4358.64,2925.99 5596.21,3731.12 5620.44,3692.85 "/>
     <polygon id="105" class="fil108" points="4358.64,2925.99 5615.59,3700.5 5638.88,3661.65 "/>
     <polygon id="106" class="fil109" points="4358.64,2925.99 5634.22,3669.42 5656.55,3630.01 "/>
     <polygon id="107" class="fil110" points="4358.64,2925.99 5652.08,3637.89 5673.43,3597.94 "/>
     <polygon id="108" class="fil111" points="4358.64,2925.99 5669.16,3605.93 5689.53,3565.48 "/>
     <polygon id="109" class="fil112" points="4358.64,2925.99 5685.46,3573.57 5704.82,3532.62 "/>
     <polygon id="110" class="fil113" points="4358.64,2925.99 5700.95,3540.81 5719.3,3499.4 "/>
     <polygon id="111" class="fil114" points="4358.64,2925.99 5715.63,3507.68 5732.97,3465.84 "/>
     <polygon id="112" class="fil115" points="4358.64,2925.99 5729.5,3474.21 5745.8,3431.95 "/>
     <polygon id="113" class="fil116" points="4358.64,2925.99 5742.54,3440.4 5757.8,3397.75 "/>
     <polygon id="114" class="fil117" points="4358.64,2925.99 5754.75,3406.28 5768.96,3363.27 "/>
     <polygon id="115" class="fil118" points="4358.64,2925.99 5766.11,3371.87 5779.26,3328.53 "/>
     <polygon id="116" class="fil119" points="4358.64,2925.99 5776.63,3337.2 5788.71,3293.54 "/>
     <polygon id="117" class="fil120" points="4358.64,2925.99 5786.3,3302.28 5797.3,3258.34 "/>
     <polygon id="118" class="fil121" points="4358.64,2925.99 5795.1,3267.13 5805.03,3222.93 "/>
     <polygon id="119" class="fil122" points="4358.64,2925.99 5803.04,3231.77 5811.88,3187.34 "/>
     <polygon id="120" class="fil123" points="4358.64,2925.99 5810.11,3196.23 5817.86,3151.6 "/>
     <polygon id="121" class="fil124" points="4358.64,2925.99 5816.31,3160.53 5822.95,3115.72 "/>
     <polygon id="122" class="fil125" points="4358.64,2925.99 5821.62,3124.68 5827.17,3079.73 "/>
     <polygon id="123" class="fil126" points="4358.64,2925.99 5826.06,3088.72 5830.5,3043.64 "/>
     <polygon id="124" class="fil127" points="4358.64,2925.99 5829.61,3052.66 5832.94,3007.49 "/>
     <polygon id="125" class="fil128" points="4358.64,2925.99 5832.28,3016.52 5834.5,2971.28 "/>
     <polygon id="126" class="fil129" points="4358.64,2925.99 5834.05,2980.33 5835.17,2935.05 "/>
     <polygon id="127" class="fil130" points="4358.64,2925.99 5834.94,2944.11 5834.94,2898.81 "/>
     <polygon id="128" class="fil131" points="4358.64,2925.99 5834.94,2907.87 5833.83,2862.59 "/>
     <polygon id="129" class="fil132" points="4358.64,2925.99 5834.05,2871.64 5831.83,2826.4 "/>
     <polygon id="130" class="fil133" points="4358.64,2925.99 5832.28,2835.45 5828.94,2790.28 "/>
     <polygon id="131" class="fil134" points="4358.64,2925.99 5829.61,2799.31 5825.17,2754.24 "/>
     <polygon id="132" class="fil135" points="4358.64,2925.99 5826.06,2763.25 5820.51,2718.3 "/>
     <polygon id="133" class="fil136" points="4358.64,2925.99 5821.62,2727.29 5814.98,2682.48 "/>
     <polygon id="134" class="fil137" points="4358.64,2925.99 5816.31,2691.45 5808.56,2646.82 "/>
     <polygon id="135" class="fil138" points="4358.64,2925.99 5810.11,2655.74 5801.27,2611.32 "/>
     <polygon id="136" class="fil139" points="4358.64,2925.99 5803.04,2620.2 5793.12,2576.01 "/>
     <polygon id="137" class="fil140" points="4358.64,2925.99 5795.1,2584.85 5784.1,2540.91 "/>
     <polygon id="138" class="fil141" points="4358.64,2925.99 5786.3,2549.7 5774.22,2506.04 "/>
     <polygon id="139" class="fil142" points="4358.64,2925.99 5776.63,2514.78 5763.48,2471.43 "/>
     <polygon id="140" class="fil143" points="4358.64,2925.99 5766.11,2480.1 5751.91,2437.09 "/>
     <polygon id="141" class="fil144" points="4358.64,2925.99 5754.75,2445.69 5739.49,2403.04 "/>
     <polygon id="142" class="fil145" points="4358.64,2925.99 5742.54,2411.58 5726.24,2369.31 "/>
     <polygon id="143" class="fil146" points="4358.64,2925.99 5729.5,2377.77 5712.17,2335.92 "/>
     <polygon id="144" class="fil147" points="4358.64,2925.99 5715.63,2344.29 5697.28,2302.88 "/>
     <polygon id="145" class="fil148" points="4358.64,2925.99 5700.95,2311.16 5681.58,2270.22 "/>
     <polygon id="146" class="fil149" points="4358.64,2925.99 5685.46,2278.41 5665.09,2237.95 "/>
     <polygon id="147" class="fil150" points="4358.64,2925.99 5669.16,2246.04 5647.81,2206.09 "/>
     <polygon id="148" class="fil151" points="4358.64,2925.99 5652.08,2214.08 5629.76,2174.67 "/>
     <polygon id="149" class="fil152" points="4358.64,2925.99 5634.22,2182.55 5610.93,2143.7 "/>
     <polygon id="150" class="fil153" points="4358.64,2925.99 5615.59,2151.47 5591.36,2113.2 "/>
     <polygon id="151" class="fil154" points="4358.64,2925.99 5596.21,2120.86 5571.04,2083.2 "/>
     <polygon id="152" class="fil155" points="4358.64,2925.99 5576.07,2090.73 5549.99,2053.7 "/>
     <polygon id="153" class="fil156" points="4358.64,2925.99 5555.21,2061.1 5528.23,2024.72 "/>
     <polygon id="154" class="fil157" points="4358.64,2925.99 5533.62,2032 5505.76,1996.29 "/>
     <polygon id="155" class="fil158" points="4358.64,2925.99 5511.33,2003.43 5482.6,1968.42 "/>
     <polygon id="156" class="fil159" points="4358.64,2925.99 5488.34,1975.42 5458.76,1941.12 "/>
     <polygon id="157" class="fil160" points="4358.64,2925.99 5464.67,1947.98 5434.26,1914.42 "/>
     <polygon id="158" class="fil161" points="4358.64,2925.99 5440.34,1921.14 5409.11,1888.33 "/>
     <polygon id="159" class="fil162" points="4358.64,2925.99 5415.35,1894.89 5383.32,1862.86 "/>
     <polygon id="160" class="fil163" points="4358.64,2925.99 5389.73,1869.27 5356.93,1838.04 "/>
     <polygon id="161" class="fil164" points="4358.64,2925.99 5363.49,1844.28 5329.93,1813.86 "/>
     <polygon id="162" class="fil165" points="4358.64,2925.99 5336.64,1819.95 5302.34,1790.36 "/>
     <polygon id="163" class="fil166" points="4358.64,2925.99 5309.2,1796.28 5274.19,1767.54 "/>
     <polygon id="164" class="fil167" points="4358.64,2925.99 5281.19,1773.29 5245.48,1745.42 "/>
     <polygon id="165" class="fil168" points="4358.64,2925.99 5252.62,1751 5216.24,1724.02 "/>
     <polygon id="166" class="fil169" points="4358.64,2925.99 5223.52,1729.41 5186.49,1703.33 "/>
     <polygon id="167" class="fil170" points="4358.64,2925.99 5193.89,1708.55 5156.23,1683.38 "/>
     <polygon id="168" class="fil171" points="4358.64,2925.99 5163.76,1688.42 5125.5,1664.18 "/>
     <polygon id="169" class="fil172" points="4358.64,2925.99 5133.15,1669.03 5094.3,1645.74 "/>
     <polygon id="170" class="fil173" points="4358.64,2925.99 5102.07,1650.4 5062.66,1628.07 "/>
     <polygon id="171" class="fil174" points="4358.64,2925.99 5070.54,1632.54 5030.59,1611.19 "/>
     <polygon id="172" class="fil175" points="4358.64,2925.99 5038.58,1615.46 4998.12,1595.09 "/>
     <polygon id="173" class="fil176" points="4358.64,2925.99 5006.22,1599.17 4965.27,1579.8 "/>
     <polygon id="174" class="fil177" points="4358.64,2925.99 4973.46,1583.67 4932.05,1565.32 "/>
     <polygon id="175" class="fil178" points="4358.64,2925.99 4940.33,1568.99 4898.48,1551.66 "/>
     <polygon id="176" class="fil179" points="4358.64,2925.99 4906.86,1555.12 4864.59,1538.82 "/>
     <polygon id="177" class="fil180" points="4358.64,2925.99 4873.05,1542.08 4830.4,1526.82 "/>
     <polygon id="178" class="fil181" points="4358.64,2925.99 4838.93,1529.87 4795.92,1515.67 "/>
     <polygon id="179" class="fil6" points="4358.64,2925.99 4804.52,1518.51 4761.18,1505.36 "/>
     <polygon id="180" class="fil182" points="4358.64,2925.99 4769.85,1507.99 4726.19,1495.91 "/>
     <polygon id="181" class="fil183" points="4358.64,2925.99 4734.92,1498.33 4690.99,1487.32 "/>
     <polygon id="182" class="fil184" points="4358.64,2925.99 4699.77,1489.52 4655.58,1479.6 "/>
     <polygon id="183" class="fil185" points="4358.64,2925.99 4664.42,1481.58 4619.99,1472.74 "/>
     <polygon id="184" class="fil186" points="4358.64,2925.99 4628.88,1474.51 4584.25,1466.77 "/>
     <polygon id="185" class="fil187" points="4358.64,2925.99 4593.18,1468.32 4548.37,1461.67 "/>
     <polygon id="186" class="fil188" points="4358.64,2925.99 4557.33,1463 4512.38,1457.46 "/>
     <polygon id="187" class="fil189" points="4358.64,2925.99 4521.37,1458.56 4476.29,1454.12 "/>
     <polygon id="188" class="fil190" points="4358.64,2925.99 4485.31,1455.01 4440.13,1451.68 "/>
     <polygon id="189" class="fil191" points="4358.64,2925.99 4449.17,1452.35 4403.93,1450.12 "/>
     <polygon id="190" class="fil192" points="4358.64,2925.99 4412.98,1450.57 4367.7,1449.46 "/>
     <polygon id="191" class="fil193" points="4358.64,2925.99 4376.75,1449.68 4331.46,1449.68 "/>
     <polygon id="192" class="fil194" points="4358.64,2925.99 4340.52,1449.68 4295.24,1450.79 "/>
     <polygon id="193" class="fil189" points="4358.64,2925.99 4304.29,1450.57 4259.05,1452.79 "/>
     <polygon id="194" class="fil195" points="4358.64,2925.99 4268.1,1452.35 4222.93,1455.68 "/>
     <polygon id="195" class="fil196" points="4358.64,2925.99 4231.96,1455.01 4186.88,1459.45 "/>
     <polygon id="196" class="fil197" points="4358.64,2925.99 4195.9,1458.56 4150.95,1464.11 "/>
     <polygon id="197" class="fil198" points="4358.64,2925.99 4159.94,1463 4115.13,1469.65 "/>
     <polygon id="198" class="fil199" points="4358.64,2925.99 4124.09,1468.32 4079.47,1476.06 "/>
     <polygon id="199" class="fil200" points="4358.64,2925.99 4088.39,1474.51 4043.97,1483.35 "/>
     <polygon id="200" class="fil201" points="4358.64,2925.99 4052.85,1481.58 4008.66,1491.51 "/>
     <polygon id="201" class="fil202" points="4358.64,2925.99 4017.5,1489.52 3973.56,1500.53 "/>
     <polygon id="202" class="fil203" points="4358.64,2925.99 3982.35,1498.33 3938.69,1510.41 "/>
     <polygon id="203" class="fil204" points="4358.64,2925.99 3947.42,1507.99 3904.08,1521.14 "/>
     <polygon id="204" class="fil205" points="4358.64,2925.99 3912.75,1518.51 3869.74,1532.72 "/>
     <polygon id="205" class="fil206" points="4358.64,2925.99 3878.34,1529.87 3835.69,1545.13 "/>
     <polygon id="206" class="fil207" points="4358.64,2925.99 3844.22,1542.08 3801.96,1558.38 "/>
     <polygon id="207" class="fil208" points="4358.64,2925.99 3810.42,1555.12 3768.57,1572.46 "/>
     <polygon id="208" class="fil209" points="4358.64,2925.99 3776.94,1568.99 3735.53,1587.35 "/>
     <polygon id="209" class="fil210" points="4358.64,2925.99 3743.81,1583.67 3702.86,1603.04 "/>
     <polygon id="210" class="fil211" points="4358.64,2925.99 3711.05,1599.17 3670.59,1619.53 "/>
     <polygon id="211" class="fil212" points="4358.64,2925.99 3678.69,1615.46 3638.74,1636.81 "/>
     <polygon id="212" class="fil213" points="4358.64,2925.99 3646.73,1632.54 3607.32,1654.87 "/>
     <polygon id="213" class="fil214" points="4358.64,2925.99 3615.2,1650.4 3576.35,1673.69 "/>
     <polygon id="214" class="fil215" points="4358.64,2925.99 3584.12,1669.03 3545.85,1693.26 "/>
     <polygon id="215" class="fil216" points="4358.64,2925.99 3553.51,1688.42 3515.85,1713.58 "/>
     <polygon id="216" class="fil217" points="4358.64,2925.99 3523.38,1708.55 3486.35,1734.63 "/>
     <polygon id="217" class="fil218" points="4358.64,2925.99 3493.75,1729.41 3457.37,1756.4 "/>
     <polygon id="218" class="fil219" points="4358.64,2925.99 3464.65,1751 3428.94,1778.87 "/>
     <polygon id="219" class="fil220" points="4358.64,2925.99 3436.08,1773.29 3401.07,1802.03 "/>
     <polygon id="220" class="fil221" points="4358.64,2925.99 3408.07,1796.28 3373.77,1825.87 "/>
     <polygon id="221" class="fil222" points="4358.64,2925.99 3380.63,1819.95 3347.07,1850.37 "/>
     <polygon id="222" class="fil223" points="4358.64,2925.99 3353.78,1844.28 3320.98,1875.52 "/>
     <polygon id="223" class="fil224" points="4358.64,2925.99 3327.54,1869.27 3295.51,1901.3 "/>
     <polygon id="224" class="fil225" points="4358.64,2925.99 3301.92,1894.89 3270.68,1927.7 "/>
     <polygon id="225" class="fil226" points="4358.64,2925.99 3276.93,1921.14 3246.51,1954.7 "/>
     <polygon id="226" class="fil227" points="4358.64,2925.99 3252.6,1947.98 3223.01,1982.28 "/>
     <polygon id="227" class="fil228" points="4358.64,2925.99 3228.93,1975.42 3200.19,2010.44 "/>
     <polygon id="228" class="fil229" points="4358.64,2925.99 3205.94,2003.43 3178.07,2039.14 "/>
     <polygon id="229" class="fil230" points="4358.64,2925.99 3183.65,2032 3156.66,2068.38 "/>
     <polygon id="230" class="fil231" points="4358.64,2925.99 3162.06,2061.1 3135.98,2098.14 "/>
     <polygon id="231" class="fil232" points="4358.64,2925.99 3141.2,2090.73 3116.03,2128.39 "/>
     <polygon id="232" class="fil233" points="4358.64,2925.99 3121.07,2120.86 3096.83,2159.13 "/>
     <polygon id="233" class="fil234" points="4358.64,2925.99 3101.68,2151.47 3078.39,2190.33 "/>
     <polygon id="234" class="fil235" points="4358.64,2925.99 3083.05,2182.55 3060.72,2221.97 "/>
     <polygon id="235" class="fil236" points="4358.64,2925.99 3065.19,2214.08 3043.84,2254.03 "/>
     <polygon id="236" class="fil237" points="4358.64,2925.99 3048.11,2246.04 3027.74,2286.5 "/>
     <polygon id="237" class="fil238" points="4358.64,2925.99 3031.82,2278.41 3012.45,2319.35 "/>
     <polygon id="238" class="fil239" points="4358.64,2925.99 3016.32,2311.16 2997.97,2352.57 "/>
     <polygon id="239" class="fil240" points="4358.64,2925.99 3001.64,2344.29 2984.31,2386.14 "/>
     <polygon id="240" class="fil241" points="4358.64,2925.99 2987.77,2377.77 2971.47,2420.03 "/>
     <polygon id="241" class="fil242" points="4358.64,2925.99 2974.73,2411.58 2959.47,2454.22 "/>
     <polygon id="242" class="fil243" points="4358.64,2925.99 2962.52,2445.69 2948.32,2488.7 "/>
     <polygon id="243" class="fil244" points="4358.64,2925.99 2951.16,2480.1 2938.01,2523.45 "/>
     <polygon id="244" class="fil245" points="4358.64,2925.99 2940.64,2514.78 2928.56,2558.43 "/>
     <polygon id="245" class="fil246" points="4358.64,2925.99 2930.97,2549.7 2919.97,2593.64 "/>
     <polygon id="246" class="fil247" points="4358.64,2925.99 2922.17,2584.85 2912.24,2629.04 "/>
     <polygon id="247" class="fil248" points="4358.64,2925.99 2914.23,2620.2 2905.39,2664.63 "/>
     <polygon id="248" class="fil249" points="4358.64,2925.99 2907.16,2655.74 2899.42,2700.37 "/>
     <polygon id="249" class="fil250" points="4358.64,2925.99 2900.97,2691.45 2894.32,2736.25 "/>
     <polygon id="250" class="fil251" points="4358.64,2925.99 2895.65,2727.29 2890.1,2772.25 "/>
     <polygon id="251" class="fil252" points="4358.64,2925.99 2891.21,2763.25 2886.77,2808.33 "/>
     <polygon id="252" class="fil253" points="4358.64,2925.99 2887.66,2799.31 2884.33,2844.49 "/>
     <polygon id="253" class="fil254" points="4358.64,2925.99 2885,2835.45 2882.77,2880.69 "/>
     <polygon id="254" class="fil255" points="4358.64,2925.99 2883.22,2871.64 2882.11,2916.93 "/>
     <polygon id="255" class="fil256" points="4358.64,2925.99 2882.33,2907.87 2882.33,2944.11 "/>
    </g>
   </g>
   <path class="fil257" d="M3433.7 2245.83l440.73 -2.06c2.32,-13.81 4.79,-27.47 7.41,-41l-433.36 2.03c-3.38,5.69 -12.13,32.75 -14.58,39.54l-0.2 1.49zm467.89 -2.06l867.73 0c-2.48,-13.83 -5.1,-27.48 -7.88,-41l-851.97 0c-2.78,13.52 -5.4,27.17 -7.88,41zm894.89 0l452.73 0 0 -41 -460.14 0c2.62,13.53 5.09,27.19 7.41,41z"/>
   <path class="fil258" d="M3475.26 2951.4l410.44 -12.8c-2.79,-13.53 -5.43,-27.18 -7.91,-41.01l-412 12.62 -64.13 2.42 1.22 3.07c3.14,10.57 11.97,29.02 16.84,39.87l55.54 -4.17zm438.32 -12.8l843.75 0c2.96,-13.51 5.77,-27.18 8.42,-41.01l-860.59 0c2.65,13.83 5.46,27.5 8.42,41.01zm871.63 0l402.45 0c3.47,-6.57 14.42,-31.9 17.09,-40.01l0.4 -1 -412.02 0c-2.49,13.83 -5.13,27.48 -7.92,41.01z"/>
   <g>
    <g style="clip-path:url(#id2)">
     <polygon class="fil6" points="4358.64,2935.14 2900.11,2944.09 2901.42,2997.77 "/>
     <polygon id="1" class="fil7" points="4358.64,2935.14 2901.2,2988.82 2903.4,3033.51 "/>
     <polygon id="2" class="fil8" points="4358.64,2935.14 2902.96,3024.57 2906.25,3069.19 "/>
     <polygon id="3" class="fil9" points="4358.64,2935.14 2905.59,3060.27 2909.98,3104.8 "/>
     <polygon id="4" class="fil10" points="4358.64,2935.14 2909.1,3095.89 2914.58,3140.3 "/>
     <polygon id="5" class="fil11" points="4358.64,2935.14 2913.48,3131.42 2920.05,3175.68 "/>
     <polygon id="6" class="fil12" points="4358.64,2935.14 2918.74,3166.82 2926.38,3210.91 "/>
     <polygon id="7" class="fil13" points="4358.64,2935.14 2924.85,3202.09 2933.58,3245.97 "/>
     <polygon id="8" class="fil14" points="4358.64,2935.14 2931.84,3237.2 2941.64,3280.85 "/>
     <polygon id="9" class="fil15" points="4358.64,2935.14 2939.68,3272.12 2950.55,3315.52 "/>
     <polygon id="10" class="fil16" points="4358.64,2935.14 2948.38,3306.84 2960.31,3349.97 "/>
     <polygon id="11" class="fil17" points="4358.64,2935.14 2957.92,3341.34 2970.91,3384.16 "/>
     <polygon id="12" class="fil18" points="4358.64,2935.14 2968.31,3375.59 2982.35,3418.08 "/>
     <polygon id="13" class="fil19" points="4358.64,2935.14 2979.54,3409.58 2994.62,3451.71 "/>
     <polygon id="14" class="fil20" points="4358.64,2935.14 2991.6,3443.28 3007.7,3485.03 "/>
     <polygon id="15" class="fil21" points="4358.64,2935.14 3004.48,3476.68 3021.61,3518.02 "/>
     <polygon id="16" class="fil21" points="4358.64,2935.14 3018.18,3509.75 3036.31,3550.65 "/>
     <polygon id="17" class="fil22" points="4358.64,2935.14 3032.69,3542.47 3051.82,3582.92 "/>
     <polygon id="18" class="fil23" points="4358.64,2935.14 3047.99,3574.83 3068.11,3614.8 "/>
     <polygon id="19" class="fil24" points="4358.64,2935.14 3064.08,3606.8 3085.18,3646.26 "/>
     <polygon id="20" class="fil25" points="4358.64,2935.14 3080.96,3638.37 3103.01,3677.3 "/>
     <polygon id="21" class="fil26" points="4358.64,2935.14 3098.6,3669.51 3121.6,3707.89 "/>
     <polygon id="22" class="fil27" points="4358.64,2935.14 3117,3700.21 3140.94,3738.02 "/>
     <polygon id="23" class="fil28" points="4358.64,2935.14 3136.15,3730.46 3161.01,3767.66 "/>
     <polygon id="24" class="fil29" points="4358.64,2935.14 3156.04,3760.22 3181.8,3796.8 "/>
     <polygon id="25" class="fil30" points="4358.64,2935.14 3176.65,3789.48 3203.3,3825.42 "/>
     <polygon id="26" class="fil30" points="4358.64,2935.14 3197.97,3818.23 3225.5,3853.51 "/>
     <polygon id="27" class="fil31" points="4358.64,2935.14 3219.99,3846.45 3248.38,3881.04 "/>
     <polygon id="28" class="fil32" points="4358.64,2935.14 3242.7,3874.12 3271.93,3908 "/>
     <polygon id="29" class="fil33" points="4358.64,2935.14 3266.08,3901.22 3296.13,3934.38 "/>
     <polygon id="30" class="fil34" points="4358.64,2935.14 3290.12,3927.75 3320.97,3960.15 "/>
     <polygon id="31" class="fil35" points="4358.64,2935.14 3314.8,3953.67 3346.44,3985.31 "/>
     <polygon id="32" class="fil36" points="4358.64,2935.14 3340.11,3978.98 3372.52,4009.83 "/>
     <polygon id="33" class="fil37" points="4358.64,2935.14 3366.04,4003.66 3399.19,4033.71 "/>
     <polygon id="34" class="fil38" points="4358.64,2935.14 3392.56,4027.7 3426.44,4056.93 "/>
     <polygon id="35" class="fil39" points="4358.64,2935.14 3419.66,4051.08 3454.25,4079.47 "/>
     <polygon id="36" class="fil40" points="4358.64,2935.14 3447.33,4073.79 3482.6,4101.32 "/>
     <polygon id="37" class="fil40" points="4358.64,2935.14 3475.55,4095.81 3511.49,4122.46 "/>
     <polygon id="38" class="fil41" points="4358.64,2935.14 3504.3,4117.13 3540.88,4142.9 "/>
     <polygon id="39" class="fil42" points="4358.64,2935.14 3533.56,4137.74 3570.77,4162.6 "/>
     <polygon id="40" class="fil43" points="4358.64,2935.14 3563.33,4157.63 3601.13,4181.57 "/>
     <polygon id="41" class="fil44" points="4358.64,2935.14 3593.57,4176.78 3631.94,4199.78 "/>
     <polygon id="42" class="fil45" points="4358.64,2935.14 3624.27,4195.18 3663.2,4217.23 "/>
     <polygon id="43" class="fil46" points="4358.64,2935.14 3655.41,4212.82 3694.87,4233.92 "/>
     <polygon id="44" class="fil47" points="4358.64,2935.14 3686.98,4229.7 3726.95,4249.81 "/>
     <polygon id="45" class="fil48" points="4358.64,2935.14 3718.95,4245.79 3759.4,4264.92 "/>
     <polygon id="46" class="fil49" points="4358.64,2935.14 3751.31,4261.09 3792.22,4279.23 "/>
     <polygon id="47" class="fil50" points="4358.64,2935.14 3784.03,4275.6 3825.37,4292.72 "/>
     <polygon id="48" class="fil51" points="4358.64,2935.14 3817.1,4289.3 3858.85,4305.4 "/>
     <polygon id="49" class="fil52" points="4358.64,2935.14 3850.5,4302.18 3892.63,4317.25 "/>
     <polygon id="50" class="fil53" points="4358.64,2935.14 3884.2,4314.24 3926.69,4328.27 "/>
     <polygon id="51" class="fil54" points="4358.64,2935.14 3918.19,4325.47 3961.01,4338.45 "/>
     <polygon id="52" class="fil55" points="4358.64,2935.14 3952.44,4335.86 3995.56,4347.79 "/>
     <polygon id="53" class="fil56" points="4358.64,2935.14 3986.94,4345.4 4030.34,4356.28 "/>
     <polygon id="54" class="fil57" points="4358.64,2935.14 4021.66,4354.1 4065.32,4363.9 "/>
     <polygon id="55" class="fil58" points="4358.64,2935.14 4056.59,4361.94 4100.47,4370.67 "/>
     <polygon id="56" class="fil59" points="4358.64,2935.14 4091.69,4368.93 4135.78,4376.58 "/>
     <polygon id="57" class="fil60" points="4358.64,2935.14 4126.96,4375.05 4171.22,4381.61 "/>
     <polygon id="58" class="fil61" points="4358.64,2935.14 4162.37,4380.3 4206.77,4385.78 "/>
     <polygon id="59" class="fil62" points="4358.64,2935.14 4197.89,4384.68 4242.42,4389.07 "/>
     <polygon id="60" class="fil63" points="4358.64,2935.14 4233.51,4388.19 4278.14,4391.48 "/>
     <polygon id="61" class="fil64" points="4358.64,2935.14 4269.21,4390.82 4313.9,4393.02 "/>
     <polygon id="62" class="fil65" points="4358.64,2935.14 4304.96,4392.58 4349.69,4393.68 "/>
     <polygon id="63" class="fil66" points="4358.64,2935.14 4340.74,4393.46 4385.49,4393.46 "/>
     <polygon id="64" class="fil67" points="4358.64,2935.14 4376.54,4393.46 4421.27,4392.36 "/>
     <polygon id="65" class="fil68" points="4358.64,2935.14 4412.32,4392.58 4457.01,4390.38 "/>
     <polygon id="66" class="fil69" points="4358.64,2935.14 4448.07,4390.82 4492.7,4387.53 "/>
     <polygon id="67" class="fil70" points="4358.64,2935.14 4483.77,4388.19 4528.3,4383.8 "/>
     <polygon id="68" class="fil71" points="4358.64,2935.14 4519.39,4384.68 4563.8,4379.2 "/>
     <polygon id="69" class="fil72" points="4358.64,2935.14 4554.92,4380.3 4599.18,4373.73 "/>
     <polygon id="70" class="fil73" points="4358.64,2935.14 4590.32,4375.05 4634.41,4367.4 "/>
     <polygon id="71" class="fil74" points="4358.64,2935.14 4625.59,4368.93 4669.48,4360.2 "/>
     <polygon id="72" class="fil75" points="4358.64,2935.14 4660.7,4361.94 4704.36,4352.14 "/>
     <polygon id="73" class="fil76" points="4358.64,2935.14 4695.62,4354.1 4739.03,4343.23 "/>
     <polygon id="74" class="fil77" points="4358.64,2935.14 4730.34,4345.4 4773.47,4333.47 "/>
     <polygon id="75" class="fil78" points="4358.64,2935.14 4764.84,4335.86 4807.66,4322.87 "/>
     <polygon id="76" class="fil79" points="4358.64,2935.14 4799.1,4325.47 4841.58,4311.43 "/>
     <polygon id="77" class="fil80" points="4358.64,2935.14 4833.08,4314.24 4875.21,4299.16 "/>
     <polygon id="78" class="fil81" points="4358.64,2935.14 4866.78,4302.18 4908.53,4286.08 "/>
     <polygon id="79" class="fil82" points="4358.64,2935.14 4900.18,4289.3 4941.52,4272.17 "/>
     <polygon id="80" class="fil83" points="4358.64,2935.14 4933.25,4275.6 4974.16,4257.47 "/>
     <polygon id="81" class="fil84" points="4358.64,2935.14 4965.97,4261.09 5006.42,4241.96 "/>
     <polygon id="82" class="fil85" points="4358.64,2935.14 4998.33,4245.79 5038.3,4225.67 "/>
     <polygon id="83" class="fil86" points="4358.64,2935.14 5030.3,4229.7 5069.77,4208.6 "/>
     <polygon id="84" class="fil87" points="4358.64,2935.14 5061.87,4212.82 5100.8,4190.77 "/>
     <polygon id="85" class="fil88" points="4358.64,2935.14 5093.02,4195.18 5131.39,4172.18 "/>
     <polygon id="86" class="fil89" points="4358.64,2935.14 5123.72,4176.78 5161.52,4152.84 "/>
     <polygon id="87" class="fil90" points="4358.64,2935.14 5153.96,4157.63 5191.16,4132.77 "/>
     <polygon id="88" class="fil91" points="4358.64,2935.14 5183.72,4137.74 5220.3,4111.98 "/>
     <polygon id="89" class="fil92" points="4358.64,2935.14 5212.99,4117.13 5248.92,4090.48 "/>
     <polygon id="90" class="fil93" points="4358.64,2935.14 5241.74,4095.81 5277.01,4068.28 "/>
     <polygon id="91" class="fil94" points="4358.64,2935.14 5269.95,4073.79 5304.54,4045.4 "/>
     <polygon id="92" class="fil95" points="4358.64,2935.14 5297.62,4051.08 5331.5,4021.85 "/>
     <polygon id="93" class="fil96" points="4358.64,2935.14 5324.73,4027.7 5357.88,3997.65 "/>
     <polygon id="94" class="fil97" points="4358.64,2935.14 5351.25,4003.66 5383.65,3972.81 "/>
     <polygon id="95" class="fil98" points="4358.64,2935.14 5377.17,3978.98 5408.81,3947.34 "/>
     <polygon id="96" class="fil99" points="4358.64,2935.14 5402.48,3953.67 5433.34,3921.26 "/>
     <polygon id="97" class="fil100" points="4358.64,2935.14 5427.16,3927.75 5457.21,3894.59 "/>
     <polygon id="98" class="fil101" points="4358.64,2935.14 5451.2,3901.22 5480.43,3867.34 "/>
     <polygon id="99" class="fil102" points="4358.64,2935.14 5474.58,3874.12 5502.97,3839.53 "/>
     <polygon id="100" class="fil103" points="4358.64,2935.14 5497.29,3846.45 5524.82,3811.18 "/>
     <polygon id="101" class="fil104" points="4358.64,2935.14 5519.31,3818.23 5545.97,3782.29 "/>
     <polygon id="102" class="fil105" points="4358.64,2935.14 5540.63,3789.48 5566.4,3752.9 "/>
     <polygon id="103" class="fil106" points="4358.64,2935.14 5561.24,3760.22 5586.1,3723.01 "/>
     <polygon id="104" class="fil107" points="4358.64,2935.14 5581.13,3730.46 5605.07,3692.65 "/>
     <polygon id="105" class="fil108" points="4358.64,2935.14 5600.28,3700.21 5623.28,3661.84 "/>
     <polygon id="106" class="fil109" points="4358.64,2935.14 5618.68,3669.51 5640.74,3630.58 "/>
     <polygon id="107" class="fil110" points="4358.64,2935.14 5636.33,3638.37 5657.42,3598.91 "/>
     <polygon id="108" class="fil111" points="4358.64,2935.14 5653.2,3606.8 5673.32,3566.83 "/>
     <polygon id="109" class="fil112" points="4358.64,2935.14 5669.29,3574.83 5688.42,3534.38 "/>
     <polygon id="110" class="fil113" points="4358.64,2935.14 5684.6,3542.47 5702.73,3501.57 "/>
     <polygon id="111" class="fil114" points="4358.64,2935.14 5699.1,3509.75 5716.23,3468.41 "/>
     <polygon id="112" class="fil115" points="4358.64,2935.14 5712.8,3476.68 5728.9,3434.93 "/>
     <polygon id="113" class="fil116" points="4358.64,2935.14 5725.68,3443.28 5740.76,3401.15 "/>
     <polygon id="114" class="fil117" points="4358.64,2935.14 5737.74,3409.58 5751.78,3367.09 "/>
     <polygon id="115" class="fil118" points="4358.64,2935.14 5748.97,3375.59 5761.96,3332.77 "/>
     <polygon id="116" class="fil119" points="4358.64,2935.14 5759.36,3341.34 5771.29,3298.22 "/>
     <polygon id="117" class="fil120" points="4358.64,2935.14 5768.91,3306.84 5779.78,3263.44 "/>
     <polygon id="118" class="fil121" points="4358.64,2935.14 5777.6,3272.12 5787.41,3228.46 "/>
     <polygon id="119" class="fil122" points="4358.64,2935.14 5785.45,3237.2 5794.18,3193.31 "/>
     <polygon id="120" class="fil123" points="4358.64,2935.14 5792.43,3202.09 5800.08,3158 "/>
     <polygon id="121" class="fil124" points="4358.64,2935.14 5798.55,3166.82 5805.11,3122.56 "/>
     <polygon id="122" class="fil125" points="4358.64,2935.14 5803.8,3131.42 5809.28,3087.01 "/>
     <polygon id="123" class="fil126" points="4358.64,2935.14 5808.18,3095.89 5812.57,3051.36 "/>
     <polygon id="124" class="fil127" points="4358.64,2935.14 5811.69,3060.27 5814.98,3015.64 "/>
     <polygon id="125" class="fil128" points="4358.64,2935.14 5814.32,3024.57 5816.52,2979.88 "/>
     <polygon id="126" class="fil129" points="4358.64,2935.14 5816.08,2988.82 5817.18,2944.09 "/>
     <polygon id="127" class="fil130" points="4358.64,2935.14 5816.96,2953.04 5816.96,2908.29 "/>
     <polygon id="128" class="fil131" points="4358.64,2935.14 5816.96,2917.24 5815.86,2872.51 "/>
     <polygon id="129" class="fil132" points="4358.64,2935.14 5816.08,2881.46 5813.88,2836.77 "/>
     <polygon id="130" class="fil133" points="4358.64,2935.14 5814.32,2845.71 5811.03,2801.08 "/>
     <polygon id="131" class="fil134" points="4358.64,2935.14 5811.69,2810.01 5807.31,2765.48 "/>
     <polygon id="132" class="fil135" points="4358.64,2935.14 5808.18,2774.39 5802.71,2729.98 "/>
     <polygon id="133" class="fil136" points="4358.64,2935.14 5803.8,2738.86 5797.24,2694.6 "/>
     <polygon id="134" class="fil137" points="4358.64,2935.14 5798.55,2703.46 5790.9,2659.37 "/>
     <polygon id="135" class="fil138" points="4358.64,2935.14 5792.43,2668.19 5783.7,2624.3 "/>
     <polygon id="136" class="fil139" points="4358.64,2935.14 5785.45,2633.08 5775.64,2589.42 "/>
     <polygon id="137" class="fil140" points="4358.64,2935.14 5777.6,2598.16 5766.73,2554.75 "/>
     <polygon id="138" class="fil141" points="4358.64,2935.14 5768.91,2563.44 5756.97,2520.31 "/>
     <polygon id="139" class="fil142" points="4358.64,2935.14 5759.36,2528.94 5746.37,2486.12 "/>
     <polygon id="140" class="fil143" points="4358.64,2935.14 5748.97,2494.69 5734.93,2452.2 "/>
     <polygon id="141" class="fil144" points="4358.64,2935.14 5737.74,2460.7 5722.67,2418.57 "/>
     <polygon id="142" class="fil145" points="4358.64,2935.14 5725.68,2427 5709.58,2385.25 "/>
     <polygon id="143" class="fil146" points="4358.64,2935.14 5712.8,2393.6 5695.68,2352.26 "/>
     <polygon id="144" class="fil147" points="4358.64,2935.14 5699.1,2360.53 5680.97,2319.62 "/>
     <polygon id="145" class="fil148" points="4358.64,2935.14 5684.6,2327.81 5665.47,2287.36 "/>
     <polygon id="146" class="fil149" points="4358.64,2935.14 5669.29,2295.45 5649.18,2255.48 "/>
     <polygon id="147" class="fil150" points="4358.64,2935.14 5653.2,2263.48 5632.11,2224.02 "/>
     <polygon id="148" class="fil151" points="4358.64,2935.14 5636.33,2231.91 5614.27,2192.98 "/>
     <polygon id="149" class="fil152" points="4358.64,2935.14 5618.68,2200.77 5595.68,2162.39 "/>
     <polygon id="150" class="fil153" points="4358.64,2935.14 5600.28,2170.06 5576.34,2132.26 "/>
     <polygon id="151" class="fil154" points="4358.64,2935.14 5581.13,2139.82 5556.27,2102.62 "/>
     <polygon id="152" class="fil155" points="4358.64,2935.14 5561.24,2110.06 5535.48,2073.48 "/>
     <polygon id="153" class="fil156" points="4358.64,2935.14 5540.63,2080.8 5513.98,2044.86 "/>
     <polygon id="154" class="fil157" points="4358.64,2935.14 5519.31,2052.05 5491.78,2016.77 "/>
     <polygon id="155" class="fil158" points="4358.64,2935.14 5497.29,2023.83 5468.9,1989.24 "/>
     <polygon id="156" class="fil159" points="4358.64,2935.14 5474.58,1996.16 5445.36,1962.28 "/>
     <polygon id="157" class="fil160" points="4358.64,2935.14 5451.2,1969.05 5421.15,1935.9 "/>
     <polygon id="158" class="fil161" points="4358.64,2935.14 5427.16,1942.53 5396.31,1910.13 "/>
     <polygon id="159" class="fil162" points="4358.64,2935.14 5402.48,1916.61 5370.84,1884.97 "/>
     <polygon id="160" class="fil163" points="4358.64,2935.14 5377.17,1891.3 5344.77,1860.44 "/>
     <polygon id="161" class="fil164" points="4358.64,2935.14 5351.25,1866.62 5318.1,1836.57 "/>
     <polygon id="162" class="fil165" points="4358.64,2935.14 5324.73,1842.58 5290.85,1813.35 "/>
     <polygon id="163" class="fil166" points="4358.64,2935.14 5297.62,1819.2 5263.04,1790.81 "/>
     <polygon id="164" class="fil167" points="4358.64,2935.14 5269.95,1796.49 5234.68,1768.96 "/>
     <polygon id="165" class="fil168" points="4358.64,2935.14 5241.74,1774.47 5205.8,1747.81 "/>
     <polygon id="166" class="fil169" points="4358.64,2935.14 5212.99,1753.15 5176.4,1727.38 "/>
     <polygon id="167" class="fil170" points="4358.64,2935.14 5183.72,1732.54 5146.52,1707.68 "/>
     <polygon id="168" class="fil171" points="4358.64,2935.14 5153.96,1712.65 5116.16,1688.71 "/>
     <polygon id="169" class="fil172" points="4358.64,2935.14 5123.72,1693.5 5085.34,1670.5 "/>
     <polygon id="170" class="fil173" points="4358.64,2935.14 5093.02,1675.1 5054.08,1653.04 "/>
     <polygon id="171" class="fil174" points="4358.64,2935.14 5061.87,1657.45 5022.41,1636.36 "/>
     <polygon id="172" class="fil175" points="4358.64,2935.14 5030.3,1640.58 4990.34,1620.46 "/>
     <polygon id="173" class="fil176" points="4358.64,2935.14 4998.33,1624.49 4957.88,1605.36 "/>
     <polygon id="174" class="fil177" points="4358.64,2935.14 4965.97,1609.18 4925.07,1591.05 "/>
     <polygon id="175" class="fil178" points="4358.64,2935.14 4933.25,1594.68 4891.91,1577.56 "/>
     <polygon id="176" class="fil179" points="4358.64,2935.14 4900.18,1580.98 4858.43,1564.88 "/>
     <polygon id="177" class="fil180" points="4358.64,2935.14 4866.78,1568.1 4824.66,1553.02 "/>
     <polygon id="178" class="fil181" points="4358.64,2935.14 4833.08,1556.04 4790.6,1542 "/>
     <polygon id="179" class="fil6" points="4358.64,2935.14 4799.1,1544.81 4756.28,1531.82 "/>
     <polygon id="180" class="fil182" points="4358.64,2935.14 4764.84,1534.42 4721.72,1522.49 "/>
     <polygon id="181" class="fil183" points="4358.64,2935.14 4730.34,1524.87 4686.94,1514 "/>
     <polygon id="182" class="fil184" points="4358.64,2935.14 4695.62,1516.18 4651.97,1506.37 "/>
     <polygon id="183" class="fil185" points="4358.64,2935.14 4660.7,1508.33 4616.81,1499.61 "/>
     <polygon id="184" class="fil186" points="4358.64,2935.14 4625.59,1501.35 4581.51,1493.7 "/>
     <polygon id="185" class="fil187" points="4358.64,2935.14 4590.32,1495.23 4546.06,1488.67 "/>
     <polygon id="186" class="fil188" points="4358.64,2935.14 4554.92,1489.98 4510.51,1484.5 "/>
     <polygon id="187" class="fil189" points="4358.64,2935.14 4519.39,1485.6 4474.86,1481.21 "/>
     <polygon id="188" class="fil190" points="4358.64,2935.14 4483.77,1482.09 4439.15,1478.8 "/>
     <polygon id="189" class="fil191" points="4358.64,2935.14 4448.07,1479.46 4403.38,1477.26 "/>
     <polygon id="190" class="fil192" points="4358.64,2935.14 4412.32,1477.7 4367.59,1476.6 "/>
     <polygon id="191" class="fil193" points="4358.64,2935.14 4376.54,1476.82 4331.79,1476.82 "/>
     <polygon id="192" class="fil194" points="4358.64,2935.14 4340.74,1476.82 4296.01,1477.92 "/>
     <polygon id="193" class="fil189" points="4358.64,2935.14 4304.96,1477.7 4260.27,1479.9 "/>
     <polygon id="194" class="fil195" points="4358.64,2935.14 4269.21,1479.46 4224.59,1482.75 "/>
     <polygon id="195" class="fil196" points="4358.64,2935.14 4233.51,1482.09 4188.98,1486.48 "/>
     <polygon id="196" class="fil197" points="4358.64,2935.14 4197.89,1485.6 4153.48,1491.08 "/>
     <polygon id="197" class="fil198" points="4358.64,2935.14 4162.37,1489.98 4118.11,1496.55 "/>
     <polygon id="198" class="fil199" points="4358.64,2935.14 4126.96,1495.23 4082.87,1502.88 "/>
     <polygon id="199" class="fil200" points="4358.64,2935.14 4091.69,1501.35 4047.81,1510.08 "/>
     <polygon id="200" class="fil201" points="4358.64,2935.14 4056.59,1508.33 4012.93,1518.14 "/>
     <polygon id="201" class="fil202" points="4358.64,2935.14 4021.66,1516.18 3978.26,1527.05 "/>
     <polygon id="202" class="fil203" points="4358.64,2935.14 3986.94,1524.87 3943.82,1536.81 "/>
     <polygon id="203" class="fil204" points="4358.64,2935.14 3952.44,1534.42 3909.62,1547.41 "/>
     <polygon id="204" class="fil205" points="4358.64,2935.14 3918.19,1544.81 3875.7,1558.85 "/>
     <polygon id="205" class="fil206" points="4358.64,2935.14 3884.2,1556.04 3842.07,1571.11 "/>
     <polygon id="206" class="fil207" points="4358.64,2935.14 3850.5,1568.1 3808.75,1584.2 "/>
     <polygon id="207" class="fil208" points="4358.64,2935.14 3817.1,1580.98 3775.76,1598.1 "/>
     <polygon id="208" class="fil209" points="4358.64,2935.14 3784.03,1594.68 3743.13,1612.81 "/>
     <polygon id="209" class="fil210" points="4358.64,2935.14 3751.31,1609.18 3710.86,1628.31 "/>
     <polygon id="210" class="fil211" points="4358.64,2935.14 3718.95,1624.49 3678.99,1644.61 "/>
     <polygon id="211" class="fil212" points="4358.64,2935.14 3686.98,1640.58 3647.52,1661.67 "/>
     <polygon id="212" class="fil213" points="4358.64,2935.14 3655.41,1657.45 3616.48,1679.51 "/>
     <polygon id="213" class="fil214" points="4358.64,2935.14 3624.27,1675.1 3585.89,1698.1 "/>
     <polygon id="214" class="fil215" points="4358.64,2935.14 3593.57,1693.5 3555.76,1717.44 "/>
     <polygon id="215" class="fil216" points="4358.64,2935.14 3563.33,1712.65 3526.12,1737.51 "/>
     <polygon id="216" class="fil217" points="4358.64,2935.14 3533.56,1732.54 3496.98,1758.3 "/>
     <polygon id="217" class="fil218" points="4358.64,2935.14 3504.3,1753.15 3468.36,1779.8 "/>
     <polygon id="218" class="fil219" points="4358.64,2935.14 3475.55,1774.47 3440.27,1802 "/>
     <polygon id="219" class="fil220" points="4358.64,2935.14 3447.33,1796.49 3412.74,1824.88 "/>
     <polygon id="220" class="fil221" points="4358.64,2935.14 3419.66,1819.2 3385.78,1848.42 "/>
     <polygon id="221" class="fil222" points="4358.64,2935.14 3392.56,1842.58 3359.4,1872.63 "/>
     <polygon id="222" class="fil223" points="4358.64,2935.14 3366.04,1866.62 3333.63,1897.47 "/>
     <polygon id="223" class="fil224" points="4358.64,2935.14 3340.11,1891.3 3308.47,1922.94 "/>
     <polygon id="224" class="fil225" points="4358.64,2935.14 3314.8,1916.61 3283.95,1949.01 "/>
     <polygon id="225" class="fil226" points="4358.64,2935.14 3290.12,1942.53 3260.07,1975.69 "/>
     <polygon id="226" class="fil227" points="4358.64,2935.14 3266.08,1969.05 3236.86,2002.93 "/>
     <polygon id="227" class="fil228" points="4358.64,2935.14 3242.7,1996.16 3214.32,2030.75 "/>
     <polygon id="228" class="fil229" points="4358.64,2935.14 3219.99,2023.83 3192.47,2059.1 "/>
     <polygon id="229" class="fil230" points="4358.64,2935.14 3197.97,2052.05 3171.32,2087.98 "/>
     <polygon id="230" class="fil231" points="4358.64,2935.14 3176.65,2080.8 3150.89,2117.38 "/>
     <polygon id="231" class="fil232" points="4358.64,2935.14 3156.04,2110.06 3131.18,2147.26 "/>
     <polygon id="232" class="fil233" points="4358.64,2935.14 3136.15,2139.82 3112.21,2177.62 "/>
     <polygon id="233" class="fil234" points="4358.64,2935.14 3117,2170.06 3094,2208.44 "/>
     <polygon id="234" class="fil235" points="4358.64,2935.14 3098.6,2200.77 3076.55,2239.7 "/>
     <polygon id="235" class="fil236" points="4358.64,2935.14 3080.96,2231.91 3059.87,2271.37 "/>
     <polygon id="236" class="fil237" points="4358.64,2935.14 3064.08,2263.48 3043.97,2303.44 "/>
     <polygon id="237" class="fil238" points="4358.64,2935.14 3047.99,2295.45 3028.86,2335.9 "/>
     <polygon id="238" class="fil239" points="4358.64,2935.14 3032.69,2327.81 3014.55,2368.71 "/>
     <polygon id="239" class="fil240" points="4358.64,2935.14 3018.18,2360.53 3001.06,2401.87 "/>
     <polygon id="240" class="fil241" points="4358.64,2935.14 3004.48,2393.6 2988.38,2435.35 "/>
     <polygon id="241" class="fil242" points="4358.64,2935.14 2991.6,2427 2976.53,2469.12 "/>
     <polygon id="242" class="fil243" points="4358.64,2935.14 2979.54,2460.7 2965.51,2503.18 "/>
     <polygon id="243" class="fil244" points="4358.64,2935.14 2968.31,2494.69 2955.33,2537.5 "/>
     <polygon id="244" class="fil245" points="4358.64,2935.14 2957.92,2528.94 2945.99,2572.06 "/>
     <polygon id="245" class="fil246" points="4358.64,2935.14 2948.38,2563.44 2937.51,2606.84 "/>
     <polygon id="246" class="fil247" points="4358.64,2935.14 2939.68,2598.16 2929.88,2641.81 "/>
     <polygon id="247" class="fil248" points="4358.64,2935.14 2931.84,2633.08 2923.11,2676.97 "/>
     <polygon id="248" class="fil249" points="4358.64,2935.14 2924.85,2668.19 2917.2,2712.27 "/>
     <polygon id="249" class="fil250" points="4358.64,2935.14 2918.74,2703.46 2912.17,2747.72 "/>
     <polygon id="250" class="fil251" points="4358.64,2935.14 2913.48,2738.86 2908.01,2783.27 "/>
     <polygon id="251" class="fil252" points="4358.64,2935.14 2909.1,2774.39 2904.72,2818.92 "/>
     <polygon id="252" class="fil253" points="4358.64,2935.14 2905.59,2810.01 2902.3,2854.63 "/>
     <polygon id="253" class="fil254" points="4358.64,2935.14 2902.96,2845.71 2900.76,2890.4 "/>
     <polygon id="254" class="fil255" points="4358.64,2935.14 2901.2,2881.46 2900.11,2926.19 "/>
     <polygon id="255" class="fil256" points="4358.64,2935.14 2900.32,2917.24 2900.32,2953.04 "/>
    </g>
   </g>
   <path class="fil1" d="M4305.46 856.69c826.44,0 1533.71,533.34 1727.9,1298.52l0.84 3.31 -185.34 0.16c0,0 -0.38,-1.36 -0.56,-1.98 -190.67,-665.65 -815.44,-1121.13 -1542.84,-1121.13 -879.86,0 -1537.92,691.01 -1537.92,1570.22 0,879.21 677.39,1571.05 1553.75,1571.05 876.36,0 1577.11,-690.63 1588.22,-1560.32l179 0c-11.13,968.44 -792.02,1739.22 -1767.22,1739.22 -975.2,0 -1732.75,-771.96 -1732.75,-1749.95 0,-977.98 738.22,-1749.1 1716.92,-1749.1z"/>
  </g>
 </g>
</svg>
